<svg width="10" height="10" viewBox="0 0 10 10" fill="none" xmlns="http://www.w3.org/2000/svg">
<path d="M4.05559 0.694919C4.51477 -0.0199706 5.55966 -0.0199694 6.01884 0.69492L6.78023 1.88033C6.93822 2.1263 7.18279 2.304 7.46555 2.37824L8.82822 2.73606C9.65001 2.95185 9.9729 3.9456 9.4349 4.60321L8.54279 5.69365C8.35768 5.91992 8.26426 6.20743 8.28102 6.49929L8.36181 7.90585C8.41053 8.7541 7.56519 9.36827 6.77351 9.05981L5.46076 8.54833C5.18837 8.4422 4.88606 8.4422 4.61366 8.54833L3.30092 9.05981C2.50923 9.36827 1.6639 8.7541 1.71262 7.90584L1.79341 6.49929C1.81017 6.20743 1.71675 5.91992 1.53164 5.69365L0.639529 4.60321C0.101521 3.9456 0.424411 2.95185 1.24621 2.73606L2.60888 2.37824C2.89163 2.304 3.13621 2.1263 3.2942 1.88033L4.05559 0.694919Z" fill="#19191A"/>
</svg>
