<svg width="73" height="78" viewBox="0 0 73 78" fill="none" xmlns="http://www.w3.org/2000/svg">
<mask id="path-1-outside-1_262_13398" maskUnits="userSpaceOnUse" x="-0.442627" y="-0.314453" width="74" height="78" fill="black">
<rect fill="white" x="-0.442627" y="-0.314453" width="74" height="78"/>
<path d="M35.3827 0.685547H35.6001C35.8884 0.856574 36.1616 1.04842 36.4303 1.24622C43.588 6.53469 50.9767 11.5198 58.5631 16.1925C62.0861 18.4561 65.7162 20.5515 69.3177 22.6901C70.2174 23.23 71.1381 23.7356 72 24.3334C70.874 27.1353 69.2196 29.7781 68.7427 32.7971C68.4951 34.2873 68.8377 35.9232 69.9291 37.0296C70.2566 37.049 70.6913 37.0594 70.794 37.4446C70.9645 37.8223 70.6159 38.1079 70.3155 38.264C67.3223 39.9773 64.3336 41.6994 61.3419 43.4157C63.5593 44.7645 65.8566 46.0078 68.3185 46.8704C68.5887 47.0057 69.0068 47.0548 69.0974 47.3865C69.034 47.7211 68.6808 47.5947 68.4408 47.614C68.5057 47.7092 68.6385 47.901 68.7049 47.9977C68.8106 48.3175 68.5057 48.5599 68.3427 48.7978C67.3962 49.9192 66.3895 51.1982 66.4362 52.7359C66.4076 54.8552 67.9472 56.7499 69.9064 57.4964C70.2672 57.6734 70.8619 57.7448 70.8876 58.243C70.9751 58.5642 70.6626 58.7368 70.4392 58.8929C60.9736 64.6841 51.5095 70.4811 42.0454 76.2753C41.8054 76.4537 41.5095 76.4433 41.2288 76.4032C41.0839 76.5444 40.9435 76.6902 40.7971 76.83H40.5752C39.6288 76.2634 38.7623 75.5778 37.8491 74.9621C32.622 71.2827 27.3646 67.6451 22.1058 64.0074C21.899 63.8765 21.6711 63.7843 21.4477 63.6876C21.2892 63.5181 21.1352 63.3441 20.9496 63.2058C16.1813 59.925 11.416 56.6398 6.65223 53.3531C6.29601 53.0854 5.77676 53.0928 5.49903 52.721C3.45828 50.4129 2.8213 47.0474 3.71941 44.1355C4.3262 42.0995 5.74809 40.2732 7.67865 39.3021C8.96619 38.9808 10.1903 38.4633 11.4522 38.0558C8.44544 35.8741 5.43412 33.6909 2.51338 31.4006C2.18583 31.1641 2.43791 30.7804 2.55111 30.5009C1.573 29.3959 0.880173 28.0351 0.659796 26.5791C0.166212 23.6122 1.49149 20.4757 3.88243 18.6345C4.2945 18.3609 4.41073 17.8612 4.70054 17.4909C9.43562 13.9915 14.6371 11.1614 19.902 8.51861C24.4575 6.31904 29.0099 4.11502 33.5548 1.89464C34.2069 1.56002 34.9812 1.34437 35.3827 0.685547ZM13.499 13.3505C10.8485 14.7708 8.25827 16.2922 5.67865 17.8329C5.82658 18.0902 5.95035 18.3787 6.20997 18.5497C10.0318 21.3739 13.813 24.2502 17.6922 26.9985C22.0062 30.1543 26.4243 33.1704 30.8227 36.2102C33.3193 37.8699 35.8174 39.5237 38.314 41.1789C38.7593 41.4853 39.271 41.7292 39.5759 42.1917C41.6861 40.2792 44.2054 38.8782 46.7789 37.6676C48.9238 36.6697 51.0597 35.654 53.1865 34.6189C56.548 32.8476 59.8853 31.0333 63.1729 29.1311C65.7193 27.6871 68.2083 26.1493 70.7336 24.6725C69.5049 24.0018 68.2476 23.3816 67.0068 22.7317C55.994 16.893 45.6469 9.88088 35.9503 2.10879C28.4816 5.88478 20.8801 9.40498 13.499 13.3505ZM3.34356 20.9501C3.973 20.9709 4.60998 20.898 5.23639 20.9798C5.36016 21.1285 5.33752 21.2386 5.16846 21.3085C4.46356 21.362 3.75564 21.3025 3.04922 21.3159C2.60092 22.0714 2.24319 22.8745 2.03489 23.7282C3.83262 23.7148 5.63035 23.7311 7.42808 23.7178C7.66355 23.7296 7.91261 23.6954 8.13751 23.7847C8.3111 23.9393 8.12393 24.2338 7.90506 24.1758C5.90809 24.207 3.9096 24.155 1.91262 24.1996C1.75866 25.4979 1.83715 26.826 2.24621 28.0752C3.68922 27.9979 5.13526 27.8254 6.57827 27.8417C6.84393 28.0931 6.48318 28.334 6.23865 28.2953C4.95564 28.3727 3.67262 28.4277 2.3896 28.5021C2.68092 29.2397 2.99187 29.9803 3.44922 30.6347C3.9896 31.1002 4.60696 31.4735 5.17903 31.9018C7.89751 31.704 10.6311 31.5449 13.3556 31.5597C13.3526 31.649 13.3496 31.8289 13.3481 31.9181C12.8017 32.052 12.2296 32.0074 11.6726 32.0535C9.69827 32.171 7.72091 32.2245 5.74356 32.287C7.17903 33.3578 8.65676 34.3735 10.1103 35.4205C12.6628 35.0487 15.2515 34.8033 17.8311 34.9624C18.0681 34.9461 18.1707 35.2138 18.0726 35.3982C17.5669 35.5722 17.0145 35.4725 16.4907 35.5082C14.5466 35.5053 12.6084 35.6406 10.6718 35.7908C12.2884 36.9136 13.9307 38.0038 15.5594 39.1102C17.3209 38.9109 19.0824 38.7146 20.8424 38.5124C21.3179 38.4618 21.7994 38.3577 22.2763 38.4514C22.1813 38.6522 22.0363 38.8068 21.7948 38.7935C19.8764 39.0076 17.9548 39.2114 16.0349 39.4211C19.1714 41.4764 22.3337 43.4945 25.5201 45.4739C28.1465 45.2538 30.779 45.0531 33.4144 44.9891C33.7767 44.9341 33.7525 45.4799 33.4159 45.465C30.9842 45.6643 28.542 45.7416 26.1028 45.8011C26.8378 46.335 27.6409 46.7678 28.4046 47.2571C28.8605 47.5159 29.2741 47.8535 29.7616 48.0513C31.3209 47.968 32.8695 47.6809 34.4318 47.6661C34.3367 47.8311 34.1993 47.9204 34.0167 47.9323C32.7216 48.0617 31.425 48.1791 30.1299 48.3056C32.4122 49.705 34.7216 51.0598 37.0099 52.4489C36.225 51.1193 36.0529 49.5042 36.3171 48.0051C36.6552 45.99 37.6846 44.1295 39.0839 42.6379C27.1412 35.715 15.7601 27.8566 5.04318 19.2071C4.41375 19.7276 3.82054 20.2898 3.34356 20.9501ZM50.2929 37.4193C47.1759 38.899 44.0982 40.5112 41.3269 42.568C40.1148 43.4945 38.9722 44.5266 38.0469 45.7387C37.1714 46.9269 36.5903 48.4528 36.9706 49.9251C37.4174 51.683 38.8469 52.9709 40.2899 53.9866C43.8823 51.6399 47.5669 49.4343 51.3178 47.3448C57.1985 43.9882 63.1879 40.8175 69.117 37.5487C68.0166 36.5909 67.437 35.129 67.5502 33.6894C67.6921 31.1076 68.9072 28.7549 70.074 26.4929C63.6302 30.3878 57.12 34.2069 50.2929 37.4193ZM8.77449 39.7229C8.57072 39.7691 8.45902 39.9624 8.30808 40.0888C9.52921 40.9796 10.7518 41.872 11.973 42.7643C21.5005 49.7719 31.3118 56.3974 41.2272 62.8593C42.9163 60.7742 45.2574 59.3539 47.6333 58.1434C53.1804 55.2879 58.5495 52.1113 64.0921 49.2484C65.2966 48.6313 66.5283 48.0631 67.7147 47.4103C65.5774 46.8466 63.4898 46.051 61.6196 44.8731C61.2046 44.6099 60.5978 44.3913 60.6687 43.7934C54.3653 47.4757 48.0152 51.0955 41.4235 54.2573C41.1171 54.3927 40.8212 54.5592 40.6099 54.8195C40.3125 54.8686 40.0182 54.934 39.7254 55.0069C38.142 54.1562 36.4937 53.4275 34.9133 52.5694C29.3601 49.6901 23.9971 46.4644 18.7699 43.0453C16.6522 41.6147 14.5541 40.1557 12.4258 38.7429C11.2469 39.2009 10.0002 39.4285 8.77449 39.7229ZM4.95714 44.769C5.8779 44.6753 6.79261 44.5102 7.71638 44.4478C7.99412 44.3452 8.06808 44.9385 7.77072 44.8924C6.79563 45.0575 5.80544 45.1408 4.82582 45.2776C4.64469 46.0644 4.5813 46.8689 4.60847 47.675C6.10582 47.4668 7.59563 47.1946 9.09902 47.0221C9.13676 47.1024 9.21525 47.2616 9.25298 47.3419C7.72393 47.6423 6.16922 47.7955 4.63262 48.0468C4.83337 49.1086 5.09601 50.166 5.61827 51.1253C7.47789 51.0286 9.33902 50.9379 11.1986 50.8353C11.4462 50.8487 11.8432 50.7237 11.8568 51.0896C11.7768 51.2859 11.5383 51.2695 11.3647 51.2904C9.52317 51.3632 7.68167 51.4302 5.84016 51.5149C6.01224 51.8079 6.14054 52.1574 6.45148 52.3418C7.22733 52.8534 8.00468 53.3635 8.78053 53.8766C10.4424 53.8008 12.1058 53.7368 13.7677 53.6535C14.0047 53.6535 14.2688 53.6044 14.4711 53.7606C14.545 54.1904 14.0847 54.1562 13.7888 54.1785C12.373 54.235 10.9571 54.296 9.54128 54.3689C10.9873 55.3311 12.4394 56.2859 13.8945 57.2332C16.1239 57.077 18.3533 56.9372 20.5828 56.7796C20.8318 56.7826 21.2152 56.674 21.1926 57.0518C21.0114 57.199 20.773 57.199 20.5541 57.2228C18.5647 57.3715 16.5782 57.5351 14.5903 57.6913C17.3707 59.5859 20.1586 61.4687 22.9496 63.35C25.4748 63.2504 28.0031 63.1136 30.5314 63.1389C30.5269 63.3381 30.4514 63.5255 30.2175 63.5077C27.9971 63.591 25.7752 63.6579 23.5548 63.7203C24.6371 64.571 25.8265 65.2878 26.9526 66.0835C27.6786 65.9378 28.4243 66.0181 29.1593 65.9928C29.9126 66.0017 30.6688 65.9497 31.4205 65.9972C31.4733 66.0731 31.5759 66.2248 31.6273 66.2991C30.2129 66.4791 28.776 66.314 27.3526 66.3542C28.4967 67.1364 29.6348 67.9276 30.7895 68.6965C32.9842 68.5522 35.1941 68.3619 37.3888 68.5954C37.7178 68.7545 37.422 69.0148 37.1684 68.9493C35.1986 68.9285 33.2288 68.9419 31.262 69.0207C32.0771 69.6052 32.9208 70.151 33.7359 70.7369C34.6386 70.5198 35.5593 70.3443 36.4937 70.4217C36.4514 70.4752 36.3684 70.5852 36.3261 70.6388C35.579 70.7102 34.8227 70.7429 34.0937 70.9437C35.994 72.3431 37.9639 73.6518 39.8929 75.0141C38.8152 72.8785 38.3276 70.4306 38.6899 68.0585C38.9012 66.4047 39.6227 64.8566 40.6371 63.533C29.0265 56.8391 18.0605 49.0849 7.74657 40.5811C6.50582 41.7426 5.49299 43.1584 4.95714 44.769ZM65.8521 49.6188C60.4453 52.6244 55.0114 55.5854 49.4567 58.3189C46.6506 59.6826 43.8793 61.2204 41.6212 63.3857C41.434 63.875 41.2333 64.3613 40.9948 64.8313C40.1661 66.6828 39.6106 68.6935 39.6997 70.7325C39.7435 72.5097 40.3639 74.211 41.185 75.7756C45.0023 73.2087 48.8453 70.6789 52.7502 68.2444C58.1993 64.7882 63.76 61.5089 69.2951 58.188C66.0196 56.9387 64.2506 52.7448 65.8521 49.6188Z"/>
</mask>
<path d="M35.3827 0.685547H35.6001C35.8884 0.856574 36.1616 1.04842 36.4303 1.24622C43.588 6.53469 50.9767 11.5198 58.5631 16.1925C62.0861 18.4561 65.7162 20.5515 69.3177 22.6901C70.2174 23.23 71.1381 23.7356 72 24.3334C70.874 27.1353 69.2196 29.7781 68.7427 32.7971C68.4951 34.2873 68.8377 35.9232 69.9291 37.0296C70.2566 37.049 70.6913 37.0594 70.794 37.4446C70.9645 37.8223 70.6159 38.1079 70.3155 38.264C67.3223 39.9773 64.3336 41.6994 61.3419 43.4157C63.5593 44.7645 65.8566 46.0078 68.3185 46.8704C68.5887 47.0057 69.0068 47.0548 69.0974 47.3865C69.034 47.7211 68.6808 47.5947 68.4408 47.614C68.5057 47.7092 68.6385 47.901 68.7049 47.9977C68.8106 48.3175 68.5057 48.5599 68.3427 48.7978C67.3962 49.9192 66.3895 51.1982 66.4362 52.7359C66.4076 54.8552 67.9472 56.7499 69.9064 57.4964C70.2672 57.6734 70.8619 57.7448 70.8876 58.243C70.9751 58.5642 70.6626 58.7368 70.4392 58.8929C60.9736 64.6841 51.5095 70.4811 42.0454 76.2753C41.8054 76.4537 41.5095 76.4433 41.2288 76.4032C41.0839 76.5444 40.9435 76.6902 40.7971 76.83H40.5752C39.6288 76.2634 38.7623 75.5778 37.8491 74.9621C32.622 71.2827 27.3646 67.6451 22.1058 64.0074C21.899 63.8765 21.6711 63.7843 21.4477 63.6876C21.2892 63.5181 21.1352 63.3441 20.9496 63.2058C16.1813 59.925 11.416 56.6398 6.65223 53.3531C6.29601 53.0854 5.77676 53.0928 5.49903 52.721C3.45828 50.4129 2.8213 47.0474 3.71941 44.1355C4.3262 42.0995 5.74809 40.2732 7.67865 39.3021C8.96619 38.9808 10.1903 38.4633 11.4522 38.0558C8.44544 35.8741 5.43412 33.6909 2.51338 31.4006C2.18583 31.1641 2.43791 30.7804 2.55111 30.5009C1.573 29.3959 0.880173 28.0351 0.659796 26.5791C0.166212 23.6122 1.49149 20.4757 3.88243 18.6345C4.2945 18.3609 4.41073 17.8612 4.70054 17.4909C9.43562 13.9915 14.6371 11.1614 19.902 8.51861C24.4575 6.31904 29.0099 4.11502 33.5548 1.89464C34.2069 1.56002 34.9812 1.34437 35.3827 0.685547ZM13.499 13.3505C10.8485 14.7708 8.25827 16.2922 5.67865 17.8329C5.82658 18.0902 5.95035 18.3787 6.20997 18.5497C10.0318 21.3739 13.813 24.2502 17.6922 26.9985C22.0062 30.1543 26.4243 33.1704 30.8227 36.2102C33.3193 37.8699 35.8174 39.5237 38.314 41.1789C38.7593 41.4853 39.271 41.7292 39.5759 42.1917C41.6861 40.2792 44.2054 38.8782 46.7789 37.6676C48.9238 36.6697 51.0597 35.654 53.1865 34.6189C56.548 32.8476 59.8853 31.0333 63.1729 29.1311C65.7193 27.6871 68.2083 26.1493 70.7336 24.6725C69.5049 24.0018 68.2476 23.3816 67.0068 22.7317C55.994 16.893 45.6469 9.88088 35.9503 2.10879C28.4816 5.88478 20.8801 9.40498 13.499 13.3505ZM3.34356 20.9501C3.973 20.9709 4.60998 20.898 5.23639 20.9798C5.36016 21.1285 5.33752 21.2386 5.16846 21.3085C4.46356 21.362 3.75564 21.3025 3.04922 21.3159C2.60092 22.0714 2.24319 22.8745 2.03489 23.7282C3.83262 23.7148 5.63035 23.7311 7.42808 23.7178C7.66355 23.7296 7.91261 23.6954 8.13751 23.7847C8.3111 23.9393 8.12393 24.2338 7.90506 24.1758C5.90809 24.207 3.9096 24.155 1.91262 24.1996C1.75866 25.4979 1.83715 26.826 2.24621 28.0752C3.68922 27.9979 5.13526 27.8254 6.57827 27.8417C6.84393 28.0931 6.48318 28.334 6.23865 28.2953C4.95564 28.3727 3.67262 28.4277 2.3896 28.5021C2.68092 29.2397 2.99187 29.9803 3.44922 30.6347C3.9896 31.1002 4.60696 31.4735 5.17903 31.9018C7.89751 31.704 10.6311 31.5449 13.3556 31.5597C13.3526 31.649 13.3496 31.8289 13.3481 31.9181C12.8017 32.052 12.2296 32.0074 11.6726 32.0535C9.69827 32.171 7.72091 32.2245 5.74356 32.287C7.17903 33.3578 8.65676 34.3735 10.1103 35.4205C12.6628 35.0487 15.2515 34.8033 17.8311 34.9624C18.0681 34.9461 18.1707 35.2138 18.0726 35.3982C17.5669 35.5722 17.0145 35.4725 16.4907 35.5082C14.5466 35.5053 12.6084 35.6406 10.6718 35.7908C12.2884 36.9136 13.9307 38.0038 15.5594 39.1102C17.3209 38.9109 19.0824 38.7146 20.8424 38.5124C21.3179 38.4618 21.7994 38.3577 22.2763 38.4514C22.1813 38.6522 22.0363 38.8068 21.7948 38.7935C19.8764 39.0076 17.9548 39.2114 16.0349 39.4211C19.1714 41.4764 22.3337 43.4945 25.5201 45.4739C28.1465 45.2538 30.779 45.0531 33.4144 44.9891C33.7767 44.9341 33.7525 45.4799 33.4159 45.465C30.9842 45.6643 28.542 45.7416 26.1028 45.8011C26.8378 46.335 27.6409 46.7678 28.4046 47.2571C28.8605 47.5159 29.2741 47.8535 29.7616 48.0513C31.3209 47.968 32.8695 47.6809 34.4318 47.6661C34.3367 47.8311 34.1993 47.9204 34.0167 47.9323C32.7216 48.0617 31.425 48.1791 30.1299 48.3056C32.4122 49.705 34.7216 51.0598 37.0099 52.4489C36.225 51.1193 36.0529 49.5042 36.3171 48.0051C36.6552 45.99 37.6846 44.1295 39.0839 42.6379C27.1412 35.715 15.7601 27.8566 5.04318 19.2071C4.41375 19.7276 3.82054 20.2898 3.34356 20.9501ZM50.2929 37.4193C47.1759 38.899 44.0982 40.5112 41.3269 42.568C40.1148 43.4945 38.9722 44.5266 38.0469 45.7387C37.1714 46.9269 36.5903 48.4528 36.9706 49.9251C37.4174 51.683 38.8469 52.9709 40.2899 53.9866C43.8823 51.6399 47.5669 49.4343 51.3178 47.3448C57.1985 43.9882 63.1879 40.8175 69.117 37.5487C68.0166 36.5909 67.437 35.129 67.5502 33.6894C67.6921 31.1076 68.9072 28.7549 70.074 26.4929C63.6302 30.3878 57.12 34.2069 50.2929 37.4193ZM8.77449 39.7229C8.57072 39.7691 8.45902 39.9624 8.30808 40.0888C9.52921 40.9796 10.7518 41.872 11.973 42.7643C21.5005 49.7719 31.3118 56.3974 41.2272 62.8593C42.9163 60.7742 45.2574 59.3539 47.6333 58.1434C53.1804 55.2879 58.5495 52.1113 64.0921 49.2484C65.2966 48.6313 66.5283 48.0631 67.7147 47.4103C65.5774 46.8466 63.4898 46.051 61.6196 44.8731C61.2046 44.6099 60.5978 44.3913 60.6687 43.7934C54.3653 47.4757 48.0152 51.0955 41.4235 54.2573C41.1171 54.3927 40.8212 54.5592 40.6099 54.8195C40.3125 54.8686 40.0182 54.934 39.7254 55.0069C38.142 54.1562 36.4937 53.4275 34.9133 52.5694C29.3601 49.6901 23.9971 46.4644 18.7699 43.0453C16.6522 41.6147 14.5541 40.1557 12.4258 38.7429C11.2469 39.2009 10.0002 39.4285 8.77449 39.7229ZM4.95714 44.769C5.8779 44.6753 6.79261 44.5102 7.71638 44.4478C7.99412 44.3452 8.06808 44.9385 7.77072 44.8924C6.79563 45.0575 5.80544 45.1408 4.82582 45.2776C4.64469 46.0644 4.5813 46.8689 4.60847 47.675C6.10582 47.4668 7.59563 47.1946 9.09902 47.0221C9.13676 47.1024 9.21525 47.2616 9.25298 47.3419C7.72393 47.6423 6.16922 47.7955 4.63262 48.0468C4.83337 49.1086 5.09601 50.166 5.61827 51.1253C7.47789 51.0286 9.33902 50.9379 11.1986 50.8353C11.4462 50.8487 11.8432 50.7237 11.8568 51.0896C11.7768 51.2859 11.5383 51.2695 11.3647 51.2904C9.52317 51.3632 7.68167 51.4302 5.84016 51.5149C6.01224 51.8079 6.14054 52.1574 6.45148 52.3418C7.22733 52.8534 8.00468 53.3635 8.78053 53.8766C10.4424 53.8008 12.1058 53.7368 13.7677 53.6535C14.0047 53.6535 14.2688 53.6044 14.4711 53.7606C14.545 54.1904 14.0847 54.1562 13.7888 54.1785C12.373 54.235 10.9571 54.296 9.54128 54.3689C10.9873 55.3311 12.4394 56.2859 13.8945 57.2332C16.1239 57.077 18.3533 56.9372 20.5828 56.7796C20.8318 56.7826 21.2152 56.674 21.1926 57.0518C21.0114 57.199 20.773 57.199 20.5541 57.2228C18.5647 57.3715 16.5782 57.5351 14.5903 57.6913C17.3707 59.5859 20.1586 61.4687 22.9496 63.35C25.4748 63.2504 28.0031 63.1136 30.5314 63.1389C30.5269 63.3381 30.4514 63.5255 30.2175 63.5077C27.9971 63.591 25.7752 63.6579 23.5548 63.7203C24.6371 64.571 25.8265 65.2878 26.9526 66.0835C27.6786 65.9378 28.4243 66.0181 29.1593 65.9928C29.9126 66.0017 30.6688 65.9497 31.4205 65.9972C31.4733 66.0731 31.5759 66.2248 31.6273 66.2991C30.2129 66.4791 28.776 66.314 27.3526 66.3542C28.4967 67.1364 29.6348 67.9276 30.7895 68.6965C32.9842 68.5522 35.1941 68.3619 37.3888 68.5954C37.7178 68.7545 37.422 69.0148 37.1684 68.9493C35.1986 68.9285 33.2288 68.9419 31.262 69.0207C32.0771 69.6052 32.9208 70.151 33.7359 70.7369C34.6386 70.5198 35.5593 70.3443 36.4937 70.4217C36.4514 70.4752 36.3684 70.5852 36.3261 70.6388C35.579 70.7102 34.8227 70.7429 34.0937 70.9437C35.994 72.3431 37.9639 73.6518 39.8929 75.0141C38.8152 72.8785 38.3276 70.4306 38.6899 68.0585C38.9012 66.4047 39.6227 64.8566 40.6371 63.533C29.0265 56.8391 18.0605 49.0849 7.74657 40.5811C6.50582 41.7426 5.49299 43.1584 4.95714 44.769ZM65.8521 49.6188C60.4453 52.6244 55.0114 55.5854 49.4567 58.3189C46.6506 59.6826 43.8793 61.2204 41.6212 63.3857C41.434 63.875 41.2333 64.3613 40.9948 64.8313C40.1661 66.6828 39.6106 68.6935 39.6997 70.7325C39.7435 72.5097 40.3639 74.211 41.185 75.7756C45.0023 73.2087 48.8453 70.6789 52.7502 68.2444C58.1993 64.7882 63.76 61.5089 69.2951 58.188C66.0196 56.9387 64.2506 52.7448 65.8521 49.6188Z" fill="#606060"/>
<path d="M35.3827 0.685547H35.6001C35.8884 0.856574 36.1616 1.04842 36.4303 1.24622C43.588 6.53469 50.9767 11.5198 58.5631 16.1925C62.0861 18.4561 65.7162 20.5515 69.3177 22.6901C70.2174 23.23 71.1381 23.7356 72 24.3334C70.874 27.1353 69.2196 29.7781 68.7427 32.7971C68.4951 34.2873 68.8377 35.9232 69.9291 37.0296C70.2566 37.049 70.6913 37.0594 70.794 37.4446C70.9645 37.8223 70.6159 38.1079 70.3155 38.264C67.3223 39.9773 64.3336 41.6994 61.3419 43.4157C63.5593 44.7645 65.8566 46.0078 68.3185 46.8704C68.5887 47.0057 69.0068 47.0548 69.0974 47.3865C69.034 47.7211 68.6808 47.5947 68.4408 47.614C68.5057 47.7092 68.6385 47.901 68.7049 47.9977C68.8106 48.3175 68.5057 48.5599 68.3427 48.7978C67.3962 49.9192 66.3895 51.1982 66.4362 52.7359C66.4076 54.8552 67.9472 56.7499 69.9064 57.4964C70.2672 57.6734 70.8619 57.7448 70.8876 58.243C70.9751 58.5642 70.6626 58.7368 70.4392 58.8929C60.9736 64.6841 51.5095 70.4811 42.0454 76.2753C41.8054 76.4537 41.5095 76.4433 41.2288 76.4032C41.0839 76.5444 40.9435 76.6902 40.7971 76.83H40.5752C39.6288 76.2634 38.7623 75.5778 37.8491 74.9621C32.622 71.2827 27.3646 67.6451 22.1058 64.0074C21.899 63.8765 21.6711 63.7843 21.4477 63.6876C21.2892 63.5181 21.1352 63.3441 20.9496 63.2058C16.1813 59.925 11.416 56.6398 6.65223 53.3531C6.29601 53.0854 5.77676 53.0928 5.49903 52.721C3.45828 50.4129 2.8213 47.0474 3.71941 44.1355C4.3262 42.0995 5.74809 40.2732 7.67865 39.3021C8.96619 38.9808 10.1903 38.4633 11.4522 38.0558C8.44544 35.8741 5.43412 33.6909 2.51338 31.4006C2.18583 31.1641 2.43791 30.7804 2.55111 30.5009C1.573 29.3959 0.880173 28.0351 0.659796 26.5791C0.166212 23.6122 1.49149 20.4757 3.88243 18.6345C4.2945 18.3609 4.41073 17.8612 4.70054 17.4909C9.43562 13.9915 14.6371 11.1614 19.902 8.51861C24.4575 6.31904 29.0099 4.11502 33.5548 1.89464C34.2069 1.56002 34.9812 1.34437 35.3827 0.685547ZM13.499 13.3505C10.8485 14.7708 8.25827 16.2922 5.67865 17.8329C5.82658 18.0902 5.95035 18.3787 6.20997 18.5497C10.0318 21.3739 13.813 24.2502 17.6922 26.9985C22.0062 30.1543 26.4243 33.1704 30.8227 36.2102C33.3193 37.8699 35.8174 39.5237 38.314 41.1789C38.7593 41.4853 39.271 41.7292 39.5759 42.1917C41.6861 40.2792 44.2054 38.8782 46.7789 37.6676C48.9238 36.6697 51.0597 35.654 53.1865 34.6189C56.548 32.8476 59.8853 31.0333 63.1729 29.1311C65.7193 27.6871 68.2083 26.1493 70.7336 24.6725C69.5049 24.0018 68.2476 23.3816 67.0068 22.7317C55.994 16.893 45.6469 9.88088 35.9503 2.10879C28.4816 5.88478 20.8801 9.40498 13.499 13.3505ZM3.34356 20.9501C3.973 20.9709 4.60998 20.898 5.23639 20.9798C5.36016 21.1285 5.33752 21.2386 5.16846 21.3085C4.46356 21.362 3.75564 21.3025 3.04922 21.3159C2.60092 22.0714 2.24319 22.8745 2.03489 23.7282C3.83262 23.7148 5.63035 23.7311 7.42808 23.7178C7.66355 23.7296 7.91261 23.6954 8.13751 23.7847C8.3111 23.9393 8.12393 24.2338 7.90506 24.1758C5.90809 24.207 3.9096 24.155 1.91262 24.1996C1.75866 25.4979 1.83715 26.826 2.24621 28.0752C3.68922 27.9979 5.13526 27.8254 6.57827 27.8417C6.84393 28.0931 6.48318 28.334 6.23865 28.2953C4.95564 28.3727 3.67262 28.4277 2.3896 28.5021C2.68092 29.2397 2.99187 29.9803 3.44922 30.6347C3.9896 31.1002 4.60696 31.4735 5.17903 31.9018C7.89751 31.704 10.6311 31.5449 13.3556 31.5597C13.3526 31.649 13.3496 31.8289 13.3481 31.9181C12.8017 32.052 12.2296 32.0074 11.6726 32.0535C9.69827 32.171 7.72091 32.2245 5.74356 32.287C7.17903 33.3578 8.65676 34.3735 10.1103 35.4205C12.6628 35.0487 15.2515 34.8033 17.8311 34.9624C18.0681 34.9461 18.1707 35.2138 18.0726 35.3982C17.5669 35.5722 17.0145 35.4725 16.4907 35.5082C14.5466 35.5053 12.6084 35.6406 10.6718 35.7908C12.2884 36.9136 13.9307 38.0038 15.5594 39.1102C17.3209 38.9109 19.0824 38.7146 20.8424 38.5124C21.3179 38.4618 21.7994 38.3577 22.2763 38.4514C22.1813 38.6522 22.0363 38.8068 21.7948 38.7935C19.8764 39.0076 17.9548 39.2114 16.0349 39.4211C19.1714 41.4764 22.3337 43.4945 25.5201 45.4739C28.1465 45.2538 30.779 45.0531 33.4144 44.9891C33.7767 44.9341 33.7525 45.4799 33.4159 45.465C30.9842 45.6643 28.542 45.7416 26.1028 45.8011C26.8378 46.335 27.6409 46.7678 28.4046 47.2571C28.8605 47.5159 29.2741 47.8535 29.7616 48.0513C31.3209 47.968 32.8695 47.6809 34.4318 47.6661C34.3367 47.8311 34.1993 47.9204 34.0167 47.9323C32.7216 48.0617 31.425 48.1791 30.1299 48.3056C32.4122 49.705 34.7216 51.0598 37.0099 52.4489C36.225 51.1193 36.0529 49.5042 36.3171 48.0051C36.6552 45.99 37.6846 44.1295 39.0839 42.6379C27.1412 35.715 15.7601 27.8566 5.04318 19.2071C4.41375 19.7276 3.82054 20.2898 3.34356 20.9501ZM50.2929 37.4193C47.1759 38.899 44.0982 40.5112 41.3269 42.568C40.1148 43.4945 38.9722 44.5266 38.0469 45.7387C37.1714 46.9269 36.5903 48.4528 36.9706 49.9251C37.4174 51.683 38.8469 52.9709 40.2899 53.9866C43.8823 51.6399 47.5669 49.4343 51.3178 47.3448C57.1985 43.9882 63.1879 40.8175 69.117 37.5487C68.0166 36.5909 67.437 35.129 67.5502 33.6894C67.6921 31.1076 68.9072 28.7549 70.074 26.4929C63.6302 30.3878 57.12 34.2069 50.2929 37.4193ZM8.77449 39.7229C8.57072 39.7691 8.45902 39.9624 8.30808 40.0888C9.52921 40.9796 10.7518 41.872 11.973 42.7643C21.5005 49.7719 31.3118 56.3974 41.2272 62.8593C42.9163 60.7742 45.2574 59.3539 47.6333 58.1434C53.1804 55.2879 58.5495 52.1113 64.0921 49.2484C65.2966 48.6313 66.5283 48.0631 67.7147 47.4103C65.5774 46.8466 63.4898 46.051 61.6196 44.8731C61.2046 44.6099 60.5978 44.3913 60.6687 43.7934C54.3653 47.4757 48.0152 51.0955 41.4235 54.2573C41.1171 54.3927 40.8212 54.5592 40.6099 54.8195C40.3125 54.8686 40.0182 54.934 39.7254 55.0069C38.142 54.1562 36.4937 53.4275 34.9133 52.5694C29.3601 49.6901 23.9971 46.4644 18.7699 43.0453C16.6522 41.6147 14.5541 40.1557 12.4258 38.7429C11.2469 39.2009 10.0002 39.4285 8.77449 39.7229ZM4.95714 44.769C5.8779 44.6753 6.79261 44.5102 7.71638 44.4478C7.99412 44.3452 8.06808 44.9385 7.77072 44.8924C6.79563 45.0575 5.80544 45.1408 4.82582 45.2776C4.64469 46.0644 4.5813 46.8689 4.60847 47.675C6.10582 47.4668 7.59563 47.1946 9.09902 47.0221C9.13676 47.1024 9.21525 47.2616 9.25298 47.3419C7.72393 47.6423 6.16922 47.7955 4.63262 48.0468C4.83337 49.1086 5.09601 50.166 5.61827 51.1253C7.47789 51.0286 9.33902 50.9379 11.1986 50.8353C11.4462 50.8487 11.8432 50.7237 11.8568 51.0896C11.7768 51.2859 11.5383 51.2695 11.3647 51.2904C9.52317 51.3632 7.68167 51.4302 5.84016 51.5149C6.01224 51.8079 6.14054 52.1574 6.45148 52.3418C7.22733 52.8534 8.00468 53.3635 8.78053 53.8766C10.4424 53.8008 12.1058 53.7368 13.7677 53.6535C14.0047 53.6535 14.2688 53.6044 14.4711 53.7606C14.545 54.1904 14.0847 54.1562 13.7888 54.1785C12.373 54.235 10.9571 54.296 9.54128 54.3689C10.9873 55.3311 12.4394 56.2859 13.8945 57.2332C16.1239 57.077 18.3533 56.9372 20.5828 56.7796C20.8318 56.7826 21.2152 56.674 21.1926 57.0518C21.0114 57.199 20.773 57.199 20.5541 57.2228C18.5647 57.3715 16.5782 57.5351 14.5903 57.6913C17.3707 59.5859 20.1586 61.4687 22.9496 63.35C25.4748 63.2504 28.0031 63.1136 30.5314 63.1389C30.5269 63.3381 30.4514 63.5255 30.2175 63.5077C27.9971 63.591 25.7752 63.6579 23.5548 63.7203C24.6371 64.571 25.8265 65.2878 26.9526 66.0835C27.6786 65.9378 28.4243 66.0181 29.1593 65.9928C29.9126 66.0017 30.6688 65.9497 31.4205 65.9972C31.4733 66.0731 31.5759 66.2248 31.6273 66.2991C30.2129 66.4791 28.776 66.314 27.3526 66.3542C28.4967 67.1364 29.6348 67.9276 30.7895 68.6965C32.9842 68.5522 35.1941 68.3619 37.3888 68.5954C37.7178 68.7545 37.422 69.0148 37.1684 68.9493C35.1986 68.9285 33.2288 68.9419 31.262 69.0207C32.0771 69.6052 32.9208 70.151 33.7359 70.7369C34.6386 70.5198 35.5593 70.3443 36.4937 70.4217C36.4514 70.4752 36.3684 70.5852 36.3261 70.6388C35.579 70.7102 34.8227 70.7429 34.0937 70.9437C35.994 72.3431 37.9639 73.6518 39.8929 75.0141C38.8152 72.8785 38.3276 70.4306 38.6899 68.0585C38.9012 66.4047 39.6227 64.8566 40.6371 63.533C29.0265 56.8391 18.0605 49.0849 7.74657 40.5811C6.50582 41.7426 5.49299 43.1584 4.95714 44.769ZM65.8521 49.6188C60.4453 52.6244 55.0114 55.5854 49.4567 58.3189C46.6506 59.6826 43.8793 61.2204 41.6212 63.3857C41.434 63.875 41.2333 64.3613 40.9948 64.8313C40.1661 66.6828 39.6106 68.6935 39.6997 70.7325C39.7435 72.5097 40.3639 74.211 41.185 75.7756C45.0023 73.2087 48.8453 70.6789 52.7502 68.2444C58.1993 64.7882 63.76 61.5089 69.2951 58.188C66.0196 56.9387 64.2506 52.7448 65.8521 49.6188Z" stroke="#606060" mask="url(#path-1-outside-1_262_13398)"/>
<path d="M19.0093 18.8462C19.0181 19.0649 19.133 19.223 19.2445 19.3329C19.319 19.4063 19.4168 19.4794 19.4904 19.5345C19.5168 19.5542 19.54 19.5716 19.558 19.5858L19.5642 19.5907L19.5706 19.5952C19.8958 19.8213 20.2212 20.0452 20.5461 20.2687C21.2814 20.7744 22.0139 21.2783 22.7343 21.8019C22.822 21.8661 22.9109 21.9324 23.0011 21.9996C23.6783 22.5047 24.4294 23.0648 25.3435 23.2447L25.3536 23.2466L25.3638 23.2478C25.5942 23.2738 25.7549 23.1653 25.8594 23.0498C25.9046 22.9999 25.942 22.9463 25.9717 22.9013C26.1739 22.9238 26.3602 22.8827 26.5251 22.8216C26.67 22.768 26.8198 22.6889 26.9479 22.6213C26.9967 22.5955 27.0424 22.5714 27.0834 22.551L27.0835 22.5511L27.0876 22.5489C27.6648 22.2484 28.2508 21.9554 28.8388 21.6613C30.0759 21.0427 31.3221 20.4195 32.5152 19.7125C36.5064 17.507 40.3507 15.0566 44.1064 12.4905L44.1236 12.4788L44.1386 12.4643C44.2722 12.3359 44.4516 12.131 44.5471 11.9012C44.5957 11.7844 44.6294 11.6449 44.6096 11.4981C44.5888 11.3442 44.5119 11.2048 44.3789 11.0941L44.3786 11.0938C42.4527 9.49528 40.2776 8.18734 37.9644 7.21146L37.9334 7.19837L37.9 7.19396C37.2962 7.11409 36.627 7.25242 36.1244 7.64563C30.8617 11.1942 25.3191 14.3197 19.6685 17.2383C19.4 17.3282 19.2198 17.5382 19.1699 17.787C19.1353 17.9596 19.1656 18.1397 19.2571 18.2973C19.2307 18.3239 19.2031 18.3532 19.1769 18.3846C19.0883 18.4907 18.9973 18.643 19.0093 18.8462ZM19.0093 18.8462C19.0092 18.8449 19.0092 18.8436 19.0091 18.8424L19.259 18.8337M19.0093 18.8462C19.0094 18.8475 19.0094 18.8488 19.0095 18.8501L19.259 18.8337M19.259 18.8337C19.2498 18.6932 19.3247 18.5875 19.416 18.4924L25.3918 22.9994C24.5375 22.8313 23.835 22.3084 23.1524 21.8003C23.0619 21.733 22.9717 21.6659 22.8816 21.5999C22.1584 21.0743 21.4214 20.5673 20.6847 20.0605C20.3604 19.8375 20.0363 19.6145 19.7133 19.3899C19.6846 19.3671 19.6541 19.3443 19.623 19.3211C19.4533 19.1944 19.2666 19.0549 19.259 18.8337ZM28.7891 14.253L28.7892 14.2532L28.797 14.2486C31.7759 12.4972 34.6954 10.6392 37.494 8.6105C39.1844 9.57808 40.8466 10.5891 42.4759 11.6516C37.2141 15.0759 31.7897 18.2501 26.3627 21.4257L26.1499 21.5502C25.9664 21.6452 25.8117 21.772 25.679 21.9107C25.3469 21.5627 24.9667 21.2814 24.5782 21.0299C24.3444 20.8786 24.1046 20.7362 23.8695 20.5971L23.8455 20.5829C23.6175 20.4479 23.3942 20.3157 23.1779 20.1773L23.177 20.1767C22.8332 19.9589 22.4895 19.7422 22.1462 19.5258C21.5905 19.1755 21.0356 18.8257 20.4825 18.4722C21.3721 18.0681 22.2547 17.6458 23.1348 17.2247C23.6218 16.9918 24.108 16.7591 24.5942 16.5302L24.5943 16.5304L24.6041 16.5252C25.471 16.0688 26.3326 15.5961 27.1922 15.1245C27.725 14.8322 28.2571 14.5403 28.7891 14.253Z" fill="#606060" stroke="#606060" stroke-width="0.5"/>
<path d="M26.904 41.5074L26.8881 41.5077L26.8724 41.51C24.8803 41.8028 22.8597 41.827 20.8391 41.744L20.5267 41.7312L20.5829 42.0388C20.5966 42.1138 20.6233 42.2614 20.6349 42.3328L20.6646 42.5159L20.8485 42.5405C23.1906 42.8541 25.6334 42.8605 27.954 42.2764L28.0846 42.2435L28.129 42.1163C28.1925 41.9343 28.2034 41.7165 28.0345 41.5636C27.8996 41.4415 27.7113 41.4285 27.59 41.4293C27.453 41.4302 27.3038 41.452 27.1828 41.4707C27.168 41.473 27.1538 41.4752 27.1401 41.4774C27.0293 41.4946 26.9534 41.5065 26.904 41.5074Z" fill="#606060" stroke="#606060" stroke-width="0.5"/>
<path d="M19.1511 60.2173L18.752 60.3022L19.0089 60.6192L19.1523 60.7962L19.2111 60.8688L19.3031 60.885C19.5921 60.936 19.8769 60.9177 20.1399 60.8878C20.2311 60.8774 20.3175 60.866 20.4012 60.855C20.5703 60.8327 20.7285 60.8119 20.8925 60.8037L20.9026 60.8032L20.9127 60.8019C21.7038 60.6978 22.4876 60.7004 23.2907 60.7029C23.6887 60.7042 24.0915 60.7055 24.5023 60.6939L24.7928 60.6856L24.7412 60.3996C24.7351 60.3654 24.7255 60.3144 24.7162 60.2644L24.7161 60.2635C24.7066 60.2126 24.6973 60.163 24.6914 60.1304L24.6586 59.9486L24.4752 59.9266C22.6998 59.713 20.8862 59.8483 19.1511 60.2173Z" fill="#606060" stroke="#606060" stroke-width="0.5"/>
</svg>
