<svg width="14" height="8" viewBox="0 0 14 8" fill="none" xmlns="http://www.w3.org/2000/svg">
<path fill-rule="evenodd" clip-rule="evenodd" d="M13.2438 0.881273C13.5855 1.22298 13.5855 1.777 13.2438 2.11871L12.7021 1.57692C13.2438 2.11871 13.2439 2.11866 13.2438 2.11871L13.1862 2.17615L13.025 2.3363C12.8861 2.47404 12.6871 2.67056 12.4464 2.90631C11.9655 3.37744 11.3165 4.0068 10.6467 4.63717C9.97917 5.26543 9.28166 5.90354 8.70632 6.38804C8.42052 6.62871 8.15013 6.84401 7.92095 7.00344C7.80761 7.08228 7.68665 7.15994 7.5676 7.22138C7.48607 7.26346 7.26663 7.37499 7.00012 7.37499C6.73362 7.37499 6.51417 7.26346 6.43264 7.22138C6.31359 7.15994 6.19263 7.08228 6.0793 7.00344C5.85011 6.84401 5.57972 6.62871 5.29393 6.38804C4.71859 5.90354 4.02108 5.26543 3.35355 4.63717C2.68379 4.0068 2.03478 3.37744 1.55383 2.9063C1.31318 2.67056 1.11419 2.47403 0.975224 2.3363L0.813996 2.17615L0.757467 2.11977L0.756499 2.1188C0.756442 2.11875 0.756404 2.11871 1.37512 1.49999L1.99386 0.881292L2.04886 0.93614L2.20715 1.09337C2.34406 1.22907 2.54058 1.42317 2.77844 1.65618C3.25453 2.12255 3.89458 2.74319 4.55294 3.36282C5.21354 3.98456 5.88322 4.59644 6.42116 5.04944C6.65096 5.24295 6.84615 5.39849 7.00012 5.51082C7.1541 5.39849 7.34929 5.24296 7.57908 5.04944C8.11702 4.59644 8.7867 3.98456 9.4473 3.36282C10.1057 2.74319 10.7457 2.12255 11.2218 1.65618C11.4597 1.42317 11.6562 1.22907 11.7931 1.09337L11.9514 0.93614L12.0056 0.882032C12.3474 0.540323 12.9021 0.539564 13.2438 0.881273ZM6.76498 5.6663C6.74246 5.67529 6.74135 5.67849 6.76498 5.6663C6.76528 5.66614 6.76467 5.66646 6.76498 5.6663ZM0.756403 0.881272C1.09811 0.539564 1.65215 0.539583 1.99386 0.881292L1.37512 1.49999L0.756499 2.1188C0.41479 1.7771 0.414695 1.22298 0.756403 0.881272Z" fill="#F37915"/>
</svg>
