<svg width="30" height="30" viewBox="0 0 30 30" fill="none" xmlns="http://www.w3.org/2000/svg">
<path fill-rule="evenodd" clip-rule="evenodd" d="M26.4952 23.75C27.5 22.0096 27.5 19.6731 27.5 15C27.5 10.3269 27.5 7.99038 26.4952 6.25C25.8369 5.10986 24.8901 4.16307 23.75 3.50481C22.0096 2.5 19.6731 2.5 15 2.5C10.3269 2.5 7.99038 2.5 6.25 3.50481C5.10985 4.16307 4.16307 5.10986 3.50481 6.25C2.5 7.99038 2.5 10.3269 2.5 15C2.5 19.6731 2.5 22.0096 3.50481 23.75C4.16307 24.8901 5.10986 25.8369 6.25 26.4952C7.99038 27.5 10.3269 27.5 15 27.5C19.6731 27.5 22.0096 27.5 23.75 26.4952C24.8901 25.8369 25.8369 24.8901 26.4952 23.75ZM15.6647 20.0254C16.0239 20.3487 16.5771 20.3195 16.9004 19.9603C17.2237 19.6011 17.1945 19.0479 16.8353 18.7246L16.25 19.375L16.8353 18.7246L16.8352 18.7245L16.8347 18.724L16.8325 18.722L16.8234 18.7138L16.7874 18.6814L16.6499 18.5569C16.5312 18.4492 16.3615 18.2947 16.1577 18.1079C15.7497 17.734 15.207 17.2319 14.6652 16.7172C14.1213 16.2005 13.587 15.6793 13.1922 15.2647C13.0995 15.1674 13.0174 15.0789 12.9463 15C13.0174 14.9211 13.0995 14.8326 13.1922 14.7353C13.587 14.3207 14.1213 13.7995 14.6652 13.2828C15.207 12.7681 15.7497 12.266 16.1577 11.8921C16.3615 11.7053 16.5312 11.5508 16.6499 11.4431L16.7874 11.3186L16.8234 11.2862L16.8325 11.278L16.8347 11.276L16.8352 11.2755L16.8353 11.2754L16.25 10.625L16.8353 11.2754C17.1945 10.9521 17.2237 10.3989 16.9004 10.0397C16.5771 9.68046 16.0238 9.65134 15.6647 9.97462L16.25 10.625L15.6646 9.97469L15.6644 9.97486L15.6637 9.97546L15.6612 9.97773L15.6515 9.98645L15.6143 10.02L15.4741 10.147C15.3535 10.2564 15.1815 10.4129 14.9751 10.6021C14.5628 10.9801 14.0118 11.4897 13.4598 12.0141C12.91 12.5364 12.3505 13.0816 11.925 13.5284C11.714 13.7499 11.5229 13.9609 11.3797 14.1398C11.3095 14.2276 11.2361 14.3259 11.1758 14.4253C11.1458 14.4749 11.109 14.5411 11.0774 14.6183C11.0507 14.6839 11 14.8226 11 15C11 15.1774 11.0507 15.3161 11.0774 15.3817C11.109 15.4589 11.1458 15.5251 11.1758 15.5747C11.2361 15.6741 11.3095 15.7724 11.3797 15.8602C11.5229 16.0391 11.714 16.2501 11.925 16.4716C12.3505 16.9184 12.91 17.4636 13.4598 17.9859C14.0118 18.5103 14.5628 19.0199 14.9751 19.3979C15.1815 19.5871 15.3535 19.7437 15.4741 19.853L15.6143 19.98L15.6515 20.0136L15.6612 20.0223L15.6637 20.0245L15.6644 20.0251L15.6646 20.0253L16.25 19.375L15.6647 20.0254Z" fill="#F37915"/>
</svg>
