<svg width="26" height="26" viewBox="0 0 26 26" fill="none" xmlns="http://www.w3.org/2000/svg">
<path fill-rule="evenodd" clip-rule="evenodd" d="M0.5 13C0.5 8.32692 0.5 5.99038 1.50481 4.25C2.16307 3.10986 3.10986 2.16307 4.25 1.50481C5.99038 0.5 8.32692 0.5 13 0.5C17.6731 0.5 20.0096 0.5 21.75 1.50481C22.8901 2.16307 23.8369 3.10986 24.4952 4.25C25.5 5.99038 25.5 8.32692 25.5 13C25.5 17.6731 25.5 20.0096 24.4952 21.75C23.8369 22.8901 22.8901 23.8369 21.75 24.4952C20.0096 25.5 17.6731 25.5 13 25.5C8.32692 25.5 5.99038 25.5 4.25 24.4952C3.10986 23.8369 2.16307 22.8901 1.50481 21.75C0.5 20.0096 0.5 17.6731 0.5 13ZM16.7437 9.25628C17.0854 9.59799 17.0854 10.152 16.7437 10.4937L14.2374 13L16.7437 15.5063C17.0854 15.848 17.0854 16.402 16.7437 16.7437C16.402 17.0854 15.848 17.0854 15.5063 16.7437L13 14.2374L10.4937 16.7437C10.152 17.0854 9.59799 17.0854 9.25628 16.7437C8.91457 16.402 8.91457 15.848 9.25628 15.5063L11.7626 13L9.25628 10.4937C8.91457 10.152 8.91457 9.59799 9.25628 9.25628C9.59799 8.91457 10.152 8.91457 10.4937 9.25628L13 11.7626L15.5063 9.25628C15.848 8.91457 16.402 8.91457 16.7437 9.25628Z" fill="#F37915"/>
</svg>
