<svg width="20" height="20" viewBox="0 0 20 20" fill="none" xmlns="http://www.w3.org/2000/svg">
<path d="M7.89652 1.77491C8.88047 0.242999 11.1195 0.243001 12.1035 1.77491L13.735 4.31507C14.0736 4.84215 14.5977 5.22293 15.2036 5.38203L18.1236 6.14877C19.8846 6.61118 20.5765 8.74065 19.4236 10.1498L17.5119 12.4865C17.1153 12.9713 16.9151 13.5874 16.951 14.2129L17.1241 17.2269C17.2285 19.0446 15.4171 20.3607 13.7206 19.6997L10.9076 18.6036C10.3239 18.3762 9.67609 18.3762 9.09239 18.6036L6.27936 19.6997C4.5829 20.3607 2.77147 19.0446 2.87587 17.2269L3.04898 14.2129C3.08491 13.5874 2.88472 12.9713 2.48805 12.4865L0.57639 10.1498C-0.576483 8.74064 0.115425 6.61118 1.87641 6.14877L4.79643 5.38203C5.40233 5.22293 5.92642 4.84215 6.26497 4.31507L7.89652 1.77491Z" fill="#BBBBBB"/>
</svg>
