<svg width="26" height="24" viewBox="0 0 26 24" fill="none" xmlns="http://www.w3.org/2000/svg">
<path fill-rule="evenodd" clip-rule="evenodd" d="M1.33337 1.83341C1.33337 1.18908 1.85571 0.666748 2.50004 0.666748H23.5C24.1444 0.666748 24.6667 1.18908 24.6667 1.83341C24.6667 2.47775 24.1444 3.00008 23.5 3.00008H2.50004C1.85571 3.00008 1.33337 2.47775 1.33337 1.83341Z" fill="#F37915" stroke="#F37915" stroke-linecap="round"/>
<path fill-rule="evenodd" clip-rule="evenodd" d="M1.33337 11.8334C1.33337 11.1891 1.85571 10.6667 2.50004 10.6667H23.5C24.1444 10.6667 24.6667 11.1891 24.6667 11.8334C24.6667 12.4777 24.1444 13.0001 23.5 13.0001H2.50004C1.85571 13.0001 1.33337 12.4777 1.33337 11.8334Z" fill="#F37915" stroke="#F37915" stroke-linecap="round"/>
<path fill-rule="evenodd" clip-rule="evenodd" d="M1.33337 21.8334C1.33337 21.1891 1.85571 20.6667 2.50004 20.6667H23.5C24.1444 20.6667 24.6667 21.1891 24.6667 21.8334C24.6667 22.4777 24.1444 23.0001 23.5 23.0001H2.50004C1.85571 23.0001 1.33337 22.4777 1.33337 21.8334Z" fill="#F37915" stroke="#F37915" stroke-linecap="round"/>
</svg>
