<svg width="76" height="33" viewBox="0 0 76 33" fill="none" xmlns="http://www.w3.org/2000/svg">
<path d="M26.5242 0.988716C40.9646 0.141917 55.4982 -0.631492 69.9211 0.796775C72.3201 0.960489 74.8414 2.2702 75.1383 4.83318C74.1601 12.4544 74.6259 20.8603 70.1016 27.5613C67.988 30.9597 63.8073 33.2066 59.6789 32.5009C53.9726 31.3493 49.9258 26.7596 44.4816 24.9926C40.7142 23.4797 36.6208 23.1071 32.6264 22.5426C27.5956 22.0853 22.5647 21.6054 17.5222 21.2611C14.8146 21.199 11.5714 20.9845 9.5043 22.9998C7.41976 24.7104 8.23494 27.9 6.30761 29.7178C4.71218 31.067 1.8241 30.542 1.1079 28.5266C0.496509 26.4661 1.09043 24.3547 1.1603 22.2716C1.8765 16.9368 1.46891 11.4269 3.09928 6.22193C3.73978 3.92428 5.87091 2.2702 8.26988 1.90326C14.3314 1.27663 20.4452 1.4347 26.5242 0.988716ZM18.384 9.21395C16.6954 9.36073 14.64 8.95427 13.423 10.3882C12.0081 12.2286 13.4696 15.0964 15.7812 15.2883C23.345 15.9827 30.9029 16.8408 38.4899 17.0835C40.4639 17.394 42.0069 15.6158 42.0418 13.8262C42.1408 12.2568 42.234 10.3148 40.8773 9.19137C40.0213 8.6099 38.8975 8.58168 37.8902 8.57603C31.392 8.84701 24.8822 8.95991 18.384 9.21395ZM48.278 9.36073C46.9329 10.1567 46.8281 11.8334 46.7874 13.1996C46.7408 15.0061 46.636 17.1739 48.2605 18.4271C49.984 19.6014 52.5868 19.7425 54.3104 18.4666C55.7486 16.4287 55.7311 13.7471 55.2536 11.41C54.4559 8.64377 50.543 7.92682 48.278 9.36073ZM63.1493 10.2132C60.5815 11.3874 61.3326 14.481 61.2627 16.694C61.1346 18.4779 62.7941 20.2506 64.6865 20.0022C66.5789 20.1377 68.052 18.4723 68.1219 16.7335C68.3024 14.7972 68.809 12.3132 67.132 10.8398C66.1829 9.7559 64.4245 9.74461 63.1493 10.2132Z" fill="#2C343D"/>
</svg>
