<svg width="31" height="56" viewBox="0 0 31 56" fill="none" xmlns="http://www.w3.org/2000/svg">
<path d="M14.3626 0.862793H17.0512C20.5125 1.18448 24.1705 2.04794 26.7127 4.38014C28.6469 6.29753 29.6802 8.86253 30.0232 11.436C30.3478 13.9333 30.7456 16.439 30.5536 18.9617L30.9468 17.9585V32.9591C30.2884 38.2753 30.5353 43.7058 29.4333 48.9882C28.9349 51.532 26.6213 53.5214 23.9647 54.1393C21.9528 54.7742 19.7992 54.6769 17.7325 55.0409H13.1143C9.84501 54.5118 6.34709 54.8885 3.25613 53.5764C1.2534 52.7256 0.590396 50.0844 1.94384 48.4887C2.5977 47.638 3.80025 47.312 4.88391 47.4729C9.74441 47.9469 14.6552 48.2263 19.534 47.8115C22.593 47.8157 23.951 44.8402 23.951 42.4064C24.5271 36.7558 25.0118 31.0967 25.3227 25.4292C25.373 21.4674 25.565 17.4379 24.5911 13.5523C23.5806 9.61171 19.47 6.17902 14.925 6.74196C11.738 6.99169 9.42434 9.56092 8.52357 12.2317C7.05125 16.4898 6.88664 21.0145 6.67174 25.4461C6.52542 27.9603 6.38367 30.4872 6.54828 33.0014C6.58943 34.212 7.52678 35.6468 8.99454 35.5579C11.2259 35.8119 12.7211 33.8268 13.4069 32.121C14.0379 30.8428 14.1751 28.9042 15.9492 28.5233C17.2432 28.1719 18.0297 29.4714 18.1486 30.4703C18.7887 33.721 19.4654 36.9674 20.0736 40.2266C20.3525 41.3778 19.8952 42.8043 18.5418 43.1386C16.4659 43.6169 14.294 43.3249 12.1952 43.1894C9.53866 42.8593 6.84092 42.7789 4.2392 42.1609C2.52454 41.78 1.2031 40.417 0.837307 38.8425C0.311477 36.6669 0.677272 34.4194 0.709279 32.2184C1.31741 24.6038 1.22139 16.8326 3.62192 9.4551C4.54555 6.82238 6.02702 4.1685 8.6196 2.64474C10.3205 1.56965 12.3964 1.27336 14.3626 0.862793Z" fill="#2C343D"/>
<path d="M14.4632 17.7725C16.3882 16.9387 19.0173 17.7725 19.7169 19.6984C21.0292 21.9586 19.3283 25.3871 16.3379 25.2135C13.9236 25.459 11.9849 23.2369 12.1632 21.1333C12.2547 19.7407 13.1372 18.4413 14.4632 17.7725Z" fill="#2C343D"/>
</svg>
