<svg width="30" height="30" viewBox="0 0 30 30" fill="none" xmlns="http://www.w3.org/2000/svg">
<path fill-rule="evenodd" clip-rule="evenodd" d="M0.89743 15.3846C0.89743 9.96866 0.89743 7.26067 2.06198 5.24361C2.82489 3.92222 3.92219 2.82492 5.24358 2.06201C7.26064 0.897461 9.96863 0.897461 15.3846 0.897461C20.8006 0.897461 23.5086 0.897461 25.5256 2.06201C26.847 2.82492 27.9443 3.92222 28.7072 5.24361C29.8718 7.26067 29.8718 9.96866 29.8718 15.3846C29.8718 20.8006 29.8718 23.5086 28.7072 25.5257C27.9443 26.8471 26.847 27.9444 25.5256 28.7073C23.5086 29.8718 20.8006 29.8718 15.3846 29.8718C9.96863 29.8718 7.26064 29.8718 5.24358 28.7073C3.92219 27.9444 2.82489 26.8471 2.06198 25.5257C0.89743 23.5086 0.89743 20.8006 0.89743 15.3846ZM15.3846 10.6039C12.7443 10.6039 10.6038 12.7443 10.6038 15.3846C10.6038 18.025 12.7443 20.1654 15.3846 20.1654C18.025 20.1654 20.1654 18.025 20.1654 15.3846C20.1654 12.7443 18.025 10.6039 15.3846 10.6039ZM8.57564 15.3846C8.57564 11.6241 11.6241 8.57567 15.3846 8.57567C19.1451 8.57567 22.1936 11.6241 22.1936 15.3846C22.1936 19.1451 19.1451 22.1936 15.3846 22.1936C11.6241 22.1936 8.57564 19.1451 8.57564 15.3846ZM22.6282 7.77887C23.2283 7.77887 23.7147 7.29241 23.7147 6.69233C23.7147 6.09225 23.2283 5.60579 22.6282 5.60579C22.0281 5.60579 21.5417 6.09225 21.5417 6.69233C21.5417 7.29241 22.0281 7.77887 22.6282 7.77887Z" fill="white"/>
</svg>
