<svg width="85" height="24" viewBox="0 0 85 24" fill="none" xmlns="http://www.w3.org/2000/svg">
<path d="M15.585 17.72V23H0.545V0.919998H7.585V17.72H15.585ZM38.1463 11.96C38.1463 14.0293 37.9543 15.7893 37.5703 17.24C37.2076 18.6693 36.5996 19.8427 35.7463 20.76C34.9143 21.6347 33.8156 22.2853 32.4503 22.712C31.0849 23.1173 29.4103 23.32 27.4263 23.32C24.8449 23.32 22.8183 22.9893 21.3463 22.328C19.8956 21.6453 18.8396 20.504 18.1783 18.904C17.5169 17.2827 17.1863 15.0213 17.1863 12.12C17.1863 8.77067 17.7196 5.67733 18.7863 2.84L19.5863 1.88C20.5249 1.53867 21.7729 1.24 23.3303 0.983999C24.8876 0.727999 26.3596 0.599998 27.7463 0.599998C30.3916 0.599998 32.4503 0.930665 33.9223 1.592C35.4156 2.25333 36.4929 3.39467 37.1543 5.016C37.8156 6.63733 38.1463 8.952 38.1463 11.96ZM31.1063 11.96C31.1063 10.2107 30.9889 8.89867 30.7543 8.024C30.5409 7.128 30.1889 6.52 29.6983 6.2C29.2076 5.88 28.5036 5.72 27.5863 5.72C26.8396 5.72 25.8263 5.82667 24.5463 6.04L24.4823 6.68C24.4183 7.40533 24.3543 8.19467 24.2903 9.048C24.2476 9.88 24.2263 10.8507 24.2263 11.96C24.2263 13.688 24.3329 15 24.5463 15.896C24.7596 16.792 25.0903 17.4 25.5383 17.72C25.9863 18.04 26.6156 18.2 27.4263 18.2C28.3863 18.2 29.5063 18.0933 30.7863 17.88L30.8503 17.24C30.9143 16.5147 30.9676 15.736 31.0103 14.904C31.0743 14.0507 31.1063 13.0693 31.1063 11.96ZM58.4775 6.2C55.7042 5.98667 53.4108 5.88 51.5975 5.88C50.3602 5.88 49.4108 6.31733 48.7495 7.192C48.0882 8.06667 47.7575 9.656 47.7575 11.96C47.7575 13.624 47.8428 14.8827 48.0135 15.736C48.2055 16.5893 48.5255 17.1867 48.9735 17.528C49.4215 17.8693 50.0828 18.04 50.9575 18.04C51.5762 18.04 52.3762 17.9973 53.3575 17.912V11.8L54.1575 10.84H59.9175V23H55.7575L54.9575 21.496C53.3575 22.712 51.4908 23.32 49.3575 23.32C47.3095 23.32 45.6562 22.936 44.3975 22.168C43.1388 21.3787 42.2108 20.1627 41.6135 18.52C41.0162 16.856 40.7175 14.6693 40.7175 11.96C40.7175 8.03467 41.5175 5.16533 43.1175 3.352C44.7388 1.51733 47.2988 0.599998 50.7975 0.599998C53.8908 0.599998 56.7175 0.919999 59.2775 1.56L58.4775 6.2ZM84.0838 11.96C84.0838 14.0293 83.8918 15.7893 83.5078 17.24C83.1451 18.6693 82.5371 19.8427 81.6838 20.76C80.8518 21.6347 79.7531 22.2853 78.3878 22.712C77.0224 23.1173 75.3478 23.32 73.3638 23.32C70.7824 23.32 68.7558 22.9893 67.2838 22.328C65.8331 21.6453 64.7771 20.504 64.1158 18.904C63.4544 17.2827 63.1238 15.0213 63.1238 12.12C63.1238 8.77067 63.6571 5.67733 64.7238 2.84L65.5238 1.88C66.4624 1.53867 67.7104 1.24 69.2678 0.983999C70.8251 0.727999 72.2971 0.599998 73.6838 0.599998C76.3291 0.599998 78.3878 0.930665 79.8598 1.592C81.3531 2.25333 82.4304 3.39467 83.0918 5.016C83.7531 6.63733 84.0838 8.952 84.0838 11.96ZM77.0438 11.96C77.0438 10.2107 76.9264 8.89867 76.6918 8.024C76.4784 7.128 76.1264 6.52 75.6358 6.2C75.1451 5.88 74.4411 5.72 73.5238 5.72C72.7771 5.72 71.7638 5.82667 70.4838 6.04L70.4198 6.68C70.3558 7.40533 70.2918 8.19467 70.2278 9.048C70.1851 9.88 70.1638 10.8507 70.1638 11.96C70.1638 13.688 70.2704 15 70.4838 15.896C70.6971 16.792 71.0278 17.4 71.4758 17.72C71.9238 18.04 72.5531 18.2 73.3638 18.2C74.3238 18.2 75.4438 18.0933 76.7238 17.88L76.7878 17.24C76.8518 16.5147 76.9051 15.736 76.9478 14.904C77.0118 14.0507 77.0438 13.0693 77.0438 11.96Z" fill="#19191A"/>
</svg>
