<svg width="19" height="18" viewBox="0 0 19 18" fill="none" xmlns="http://www.w3.org/2000/svg">
<path d="M7.6257 4.33815C7.13688 5.07738 5.99997 6.13887 5.99997 7C5.99997 7.99723 7.06261 10.0054 8.44268 11.3684C9.82274 12.7315 10.9903 13.5 12 13.5C12.6874 13.5 13.0328 11.8421 14.8689 11.8421C16.2459 11.8421 18 13.3421 18.5 15C18.7867 15.9506 17.6639 16.8088 16.4048 17.4062C15.4177 17.8747 14.311 18.0432 13.2234 17.9385C11.2369 17.7474 8.40465 16.9623 4.99998 13.7368C1.09846 9.5 0.901481 6.72438 0.999974 4.01385C1.09847 1.30332 3.49998 0 4.31156 0C5.06449 0 7.42441 2.03844 7.7616 3.64692C7.81183 3.88649 7.76071 4.13397 7.6257 4.33815Z" fill="#F37915"/>
</svg>
