<svg width="55" height="67" viewBox="0 0 55 67" fill="none" xmlns="http://www.w3.org/2000/svg">
<path d="M27.959 0.935059C32.0119 2.1215 35.9835 3.55505 39.9908 4.87768C44.075 6.3688 48.1935 7.77006 52.2891 9.23029C52.7935 9.38754 53.2054 9.8551 53.1869 10.3929C53.2025 10.8028 52.842 11.1033 52.4857 11.2381C51.3799 11.6804 50.2669 12.1058 49.1611 12.5509C49.1482 15.9979 48.9715 19.4421 48.7849 22.8848C48.621 25.3658 48.3616 27.8426 47.9213 30.2927C49.5829 29.7858 51.4497 31.3093 51.3628 32.9983C51.3471 33.8576 51.0821 34.7436 50.4807 35.3853C49.7268 36.18 48.6024 36.6335 47.498 36.5408C46.1713 36.4327 44.9215 35.5762 44.4113 34.3575C43.8028 32.9689 44.5097 31.2419 45.7979 30.4893C46.348 30.1551 47.0249 30.1256 47.6405 30.2801C46.6758 30.6858 45.7737 31.4974 45.7096 32.5898C45.5713 33.8029 46.8582 34.8812 48.0509 34.613C48.9886 34.4431 49.694 33.5136 49.5786 32.5785C49.5116 31.503 48.6566 30.6241 47.6477 30.2983C46.9437 24.7691 46.4307 19.2076 46.4079 13.632C45.5742 13.9297 44.7648 14.2891 43.9311 14.5854C44.0394 18.1967 44.1776 21.8065 44.2289 25.4178C44.2161 26.1367 44.3059 26.8963 43.9867 27.5688C43.7829 28.1164 43.3369 28.5208 42.9692 28.9631C43.7145 31.8035 43.6048 34.8854 42.4889 37.6191C41.6524 39.7224 40.3086 41.6039 38.7011 43.2031C43.5136 45.1646 47.7032 48.5975 50.4579 52.9614C52.8605 56.7327 54.2443 61.1331 54.3868 65.5854C54.4509 66.2256 53.8623 66.8265 53.2139 66.8013C46.1342 66.8869 39.0531 66.9726 31.972 66.9417C24.3209 66.9262 16.6712 66.988 9.02143 66.8771C6.69004 66.8448 4.35722 66.842 2.02725 66.7929C1.44867 66.8013 0.955601 66.2719 0.986952 65.7075C1.12946 59.7753 3.51216 53.9288 7.54935 49.527C10.0603 46.7793 13.2125 44.6268 16.6726 43.2031C14.3013 40.9398 12.6382 37.9379 12.1423 34.7127C11.8459 32.8467 11.9357 30.9259 12.406 29.095C11.9328 28.671 11.4497 28.2273 11.1932 27.6362C10.7914 26.8654 10.8712 25.9752 10.8669 25.137C10.9196 21.572 11.0678 18.0099 11.1661 14.4478C8.39726 13.2979 5.62409 12.1578 2.85235 11.0135C2.56449 10.8913 2.26808 10.7369 2.10705 10.4588C1.86764 10.0868 1.96312 9.52514 2.32936 9.2682C2.71127 9.14464 3.10031 9.33138 3.4694 9.41844C7.87711 7.77708 12.3119 6.20312 16.7809 4.73025C20.5074 3.5031 24.1997 2.16643 27.969 1.07266C25.012 2.47813 21.998 3.76566 18.9897 5.06021C14.9112 6.88971 10.7372 8.49737 6.62306 10.2426C13.7655 12.8331 20.858 15.5542 27.9619 18.2444C32.7358 16.4458 37.4756 14.5601 42.2709 12.8191C40.823 12.6745 39.3866 12.4316 37.9402 12.2799C35.4819 11.8826 33.0294 11.4515 30.5954 10.925C29.7888 13.0072 26.8931 13.4818 25.1032 12.3908C24.09 11.766 23.4601 10.4954 23.7808 9.32998C23.9874 8.61952 24.4235 7.95118 25.0548 7.53979C26.3188 6.86303 27.9448 6.76475 29.2188 7.46818C30.1223 7.93293 30.8505 8.93544 30.6111 9.97585C33.0109 9.83825 35.4164 9.84948 37.819 9.83544C41.0482 9.959 44.2745 10.1696 47.4923 10.4729C48.1251 10.5964 48.7079 10.2904 49.2922 10.105C45.3006 8.54932 41.3717 6.84759 37.4428 5.14586C34.2706 3.76566 31.0799 2.42618 27.959 0.935059ZM25.8542 9.67678C26.6637 10.6203 28.0274 10.6975 29.1703 10.4448C28.6416 10.1654 28.0203 10.1542 27.4574 9.97023C28.3139 9.83685 29.1846 9.81579 30.0425 9.69363C29.0036 8.46226 26.9487 8.56195 25.8542 9.67678ZM13.0957 15.126C13.2467 18.6965 13.3565 22.2699 13.365 25.8432C13.3522 26.235 13.4348 26.659 13.7555 26.9215C14.7601 27.8258 16.0584 28.32 17.3438 28.6963C19.8747 29.4067 22.5068 29.6847 25.1275 29.8083C28.6074 29.9473 32.1159 29.7915 35.5418 29.1498C37.2006 28.8058 38.8964 28.3972 40.34 27.4874C40.9043 27.1237 41.5057 26.5789 41.4558 25.853C41.47 22.2783 41.584 18.7035 41.728 15.1316C37.0894 16.9105 32.4736 18.7457 27.8422 20.5429C27.4375 20.7282 26.9886 20.6271 26.601 20.4544C22.1035 18.6656 17.5689 16.9709 13.0957 15.126ZM36.9355 31.555C33.9685 32.3146 30.8947 32.6024 27.8365 32.6361C24.66 32.6501 21.4693 32.3932 18.3727 31.6743C16.4175 31.2025 14.4538 30.5609 12.8149 29.373C12.7993 31.1646 13.0444 32.9646 13.6173 34.6678C14.7117 37.9982 17.0516 40.9201 20.1127 42.7033C23.2478 44.5566 27.104 45.1632 30.6738 44.4008C34.017 43.6931 37.0595 41.7513 39.123 39.0695C41.3318 36.2502 42.3863 32.6459 42.2809 29.1021C40.7432 30.3517 38.8394 31.0523 36.9355 31.555ZM16.788 43.2031C15.7605 43.863 14.7131 44.4934 13.7085 45.1899C12.7394 45.8624 11.7248 46.4956 10.9125 47.3563C6.28247 51.848 3.37963 58.0806 3.18012 64.4986C7.16743 64.4509 11.1547 64.4031 15.1421 64.3596C23.4131 64.3582 31.6827 64.3582 39.9538 64.3596C43.9411 64.4031 47.9284 64.4509 51.9171 64.4986C51.6991 57.6819 48.4457 51.0701 43.2998 46.5378C41.7337 45.2825 40.0578 44.1565 38.2864 43.2031C34.8635 46.4788 29.8458 48.012 25.1403 47.2496C22.0222 46.7708 19.0938 45.3162 16.788 43.2031Z" fill="#606060"/>
</svg>
