<svg width="67" height="78" viewBox="0 0 67 78" fill="none" xmlns="http://www.w3.org/2000/svg">
<path d="M27.3489 1.96295C29.3294 1.05186 31.5574 0.670743 33.7355 0.870298C30.548 1.20725 27.4402 2.63031 25.282 4.99063C23.8708 6.45131 22.8266 8.25549 22.312 10.2102C21.2113 14.2814 22.5543 18.8925 25.6738 21.7762C27.5298 23.6998 30.1562 24.8055 32.8257 25.0034C38.0834 25.4696 43.3976 21.9888 45.0129 17.0392C46.092 14.1129 45.75 10.8088 44.4352 8.01341C42.5293 4.01085 38.3308 1.29722 33.8982 0.876841C39.0198 0.463009 44.2144 3.41218 46.5237 7.92017C48.1921 11.1409 48.5756 15.0175 47.4617 18.4721C46.9221 20.1798 46.0157 21.7582 44.8834 23.1486C47.2077 24.3197 49.3161 25.9129 51.0509 27.8365C52.8538 29.976 54.1604 32.4999 54.9772 35.1562C56.1127 34.9959 57.2831 34.5756 58.4253 34.9305C59.8979 35.4032 61.0152 36.8966 60.9206 38.4407C60.8442 40.9155 60.723 43.3887 60.5835 45.8603C61.7324 45.6296 62.921 45.7867 64.0383 46.0974C65.3067 46.4328 66.3941 47.4649 66.668 48.7456C67.0698 50.2243 66.6448 51.7439 66.2081 53.1637C66.0205 51.7439 66.0006 50.1883 65.1324 48.9763C64.5164 48.1257 63.3709 47.9654 62.3881 48.0554C60.0539 48.1535 57.66 49.166 56.2871 51.0798C55.7077 51.8502 55.9766 52.8774 56.4182 53.6446C57.6451 55.7252 59.8896 57.0812 62.257 57.5359C63.0173 57.7044 63.8856 57.5555 64.4334 56.9749C65.4146 55.9575 65.6819 54.5246 66.2032 53.2651C66.409 54.8942 66.248 56.6395 65.3797 58.0724C64.7057 58.9475 63.6681 59.5642 62.5541 59.6918C61.7971 59.8046 61.0285 59.767 60.2714 59.664C60.4208 62.2909 60.5669 64.9178 60.718 67.5448C60.7695 68.5491 60.8541 69.6025 60.4325 70.5479C59.9676 71.6667 58.9118 72.4715 57.748 72.7888C50.2408 74.4164 42.7485 76.1109 35.2197 77.6305C34.3713 77.781 33.5197 78.0885 32.6497 77.9347C24.4834 76.2729 16.352 74.4425 8.21225 72.658C7.0933 72.3456 6.27982 71.3936 5.87475 70.3549C5.66557 69.6597 5.73363 68.922 5.75189 68.2089C5.90795 65.474 6.06234 62.7407 6.22504 60.0058C5.07621 60.2446 3.88754 60.0762 2.76859 59.7686C1.54506 59.4399 0.479239 58.4633 0.178751 57.2317C-0.189804 55.9346 0.0376376 54.5279 0.622013 53.3272C0.758145 53.0165 0.968985 52.7106 0.900918 52.3556C0.756485 50.7919 0.927481 49.1317 1.77582 47.7691C2.8267 46.3559 4.73588 45.9208 6.42426 46.158C6.63344 46.3821 6.94223 46.4311 7.22611 46.5031C8.44633 46.7893 9.56195 47.3962 10.5962 48.0832C12.2149 49.1251 13.5032 50.7576 13.8767 52.6517C14.0958 54.0012 13.9033 55.4782 13.0416 56.5905C11.5907 58.7185 8.97426 59.6018 6.54545 60.1269C6.71977 63.2102 6.92065 66.2918 7.07006 69.3751C7.09496 70.1472 7.7391 70.682 8.32846 71.0926C8.79994 71.3854 9.38432 71.3625 9.91557 71.4623C17.2551 72.5271 24.5714 73.7408 31.8844 74.9758C31.7964 63.8121 31.6769 52.6468 31.8861 41.4815C25.35 40.3921 18.9153 38.8006 12.4274 37.4757C12.2165 37.3039 12.0406 37.0553 11.7567 37.0029C11.0976 36.8426 10.4352 36.6856 9.76947 36.5548C8.65219 36.3487 7.49506 37.0749 7.09496 38.1005C6.84262 38.6681 6.87084 39.2995 6.83764 39.9047C6.78949 40.9106 6.75961 41.9166 6.67992 42.9193C6.6019 41.3212 6.54877 39.7182 6.55209 38.1185C6.57533 36.6627 7.77563 35.4278 9.16518 35.0794C10.3206 34.7669 11.4927 35.1726 12.6415 35.3149C14.1672 30.1494 17.8229 25.5645 22.737 23.1535C20.6103 20.5102 19.3768 17.1308 19.5362 13.7433C19.5777 8.7691 22.8216 4.07627 27.3489 1.96295ZM17.0177 29.2366C15.7909 31.1471 14.9292 33.2735 14.403 35.4703C20.4957 36.4762 26.6201 37.3006 32.6746 38.5192C33.1777 38.6485 33.6973 38.5896 34.1987 38.4767C40.1819 37.2826 46.2315 36.4566 52.2545 35.4785C51.7465 33.357 50.9281 31.3009 49.7676 29.4427C48.3366 27.1249 46.4058 25.1359 44.2426 23.4692C43.9969 23.7816 43.7562 24.1005 43.464 24.3721C40.7912 26.8485 37.1687 28.3108 33.4981 28.3599C30.4318 28.3926 27.3754 27.4308 24.8653 25.7068C23.9588 25.0672 23.0607 24.3786 22.4149 23.4692C20.3148 25.0852 18.4338 27.0039 17.0177 29.2366ZM55.0801 36.9555C54.612 36.9964 54.3663 37.4789 53.9147 37.5558C52.2047 37.9304 50.4981 38.3213 48.7881 38.6992C44.138 39.7313 39.4431 40.5491 34.7714 41.4799C34.9789 52.6452 34.8594 63.8121 34.7731 74.9758C42.3583 73.6934 49.9419 72.3766 57.5687 71.3445C58.6511 71.2349 59.5924 70.2355 59.6074 69.1608C59.7335 66.053 59.946 62.9484 60.1104 59.8422C58.3589 59.5347 56.7718 58.6662 55.374 57.6128C53.9994 56.4989 52.9335 54.9237 52.726 53.1555C52.6364 52.035 52.7659 50.8393 53.4183 49.8841C54.8361 47.6023 57.5621 46.5244 60.1204 46.0418C59.9859 43.6684 59.8697 41.2934 59.7817 38.9184C59.7551 37.9991 59.2322 37.07 58.344 36.7167C57.2815 36.2276 56.1459 36.769 55.0801 36.9555ZM3.6767 48.3351C2.1477 48.7931 1.71772 50.5122 1.22133 51.8175C0.746524 52.7678 1.07025 53.8212 1.20307 54.8108C1.38236 55.7448 1.67455 56.7671 2.48803 57.3592C3.28656 57.9285 4.3308 57.8581 5.26049 57.7715C7.39379 57.5784 9.52377 56.579 10.8054 54.855C11.4346 54.0748 11.1773 53.0066 10.7158 52.2166C9.4391 50.0689 7.08168 48.6769 4.61635 48.2942C4.30424 48.2582 3.98383 48.2582 3.6767 48.3351Z" fill="#F37915"/>
<path d="M6.54214 46.1923C6.59029 45.2698 6.64341 44.3456 6.67828 43.4231C6.77291 44.3489 6.81607 45.278 6.86754 46.2054L6.54214 46.1923Z" fill="#F37915"/>
</svg>
