<svg width="61" height="73" viewBox="0 0 61 73" fill="none" xmlns="http://www.w3.org/2000/svg">
<path d="M11.8334 1.64749C15.607 0.172484 19.8138 -0.201144 23.8828 0.0929564C27.404 0.373552 30.9368 1.17032 34.0065 2.79838C36.0518 3.88625 37.8912 5.42578 38.8591 7.41545C39.6992 9.10803 39.7871 11.0512 39.309 12.8413C38.8558 14.5924 37.9427 16.2145 36.8736 17.7195C37.9112 18.5327 38.6333 19.6836 38.7661 20.9261C38.9654 22.4776 38.2548 24.0891 36.9383 25.0975C36.2311 25.6662 35.3396 26.0023 34.4282 26.2049C33.5483 29.2089 31.2506 31.8363 28.2175 33.3008C28.2109 34.2341 28.2142 35.1674 28.2142 36.1007C32.8261 36.7039 37.1525 38.8332 40.2387 41.9858C42.1412 41.8282 44.0537 41.8702 45.9613 41.8582C49.0077 41.8537 52.054 41.8792 55.1004 41.8672C56.2957 41.8477 57.5126 42.2708 58.3045 43.0961C59.3903 44.2245 59.8319 45.722 60.0925 47.1685C60.8811 52.1157 59.8418 57.0914 59.8983 62.0506C59.8302 62.7693 60.3698 63.5991 59.8136 64.2308C59.1911 64.789 58.2298 64.6735 57.4313 64.684C57.4346 66.282 57.4313 67.8816 57.4329 69.4796C58.0289 69.4991 58.7079 69.3491 59.216 69.7197C59.5596 69.9418 59.9979 70.1894 60.041 70.6095C59.9962 71.0432 59.4766 71.2232 59.0948 71.3778C57.6587 71.8474 56.1164 71.96 54.6057 72.077C51.1144 72.2826 47.6032 72.1971 44.1235 71.8835C42.1512 71.6734 40.1507 71.4453 38.288 70.7971C37.6422 70.5555 36.8287 70.1954 36.8653 69.4526C35.3429 69.094 33.7541 69.2425 32.1986 69.238C25.2259 69.4661 18.2549 70.0258 11.2723 69.8413C8.7472 69.7497 6.19554 69.6087 3.75013 68.992C2.59466 68.6784 1.34456 68.2567 0.643975 67.3114C0.212335 66.7592 0.333526 66.06 0.27542 65.4252C-0.111396 61.737 -0.116376 58.0052 0.424835 54.329C0.858135 51.43 1.64339 48.5535 2.99642 45.8856C4.12698 43.6573 5.68919 41.5821 7.72786 39.9526C10.4422 37.7408 13.9784 36.4699 17.5875 36.0992C17.5892 35.3535 17.5892 34.6077 17.5875 33.862C13.9153 32.567 11.0332 29.638 10.0371 26.1914C8.48157 25.9108 7.06048 25.027 6.31175 23.7515C5.51321 22.4731 5.47835 20.8841 6.08099 19.5351C4.82591 17.922 4.43909 15.7703 5.14632 13.8977C5.26585 13.515 5.57796 13.1384 5.40862 12.7258C4.82093 10.6731 4.84583 8.41029 5.87181 6.47163C7.0389 4.21336 9.35482 2.62132 11.8334 1.64749ZM12.461 4.46845C10.145 5.66436 8.16116 7.52799 7.33773 9.85679C6.37483 12.5112 6.92933 15.4162 8.10804 17.937C8.47161 18.4802 9.13069 19.1029 9.90433 18.9424C10.5867 18.6903 10.746 17.931 10.7792 17.3398C10.8573 16.7336 10.4223 16.0419 10.9154 15.5122C11.4134 14.909 12.358 14.981 13.0885 15.0726C15.4044 15.3967 17.7353 16.1469 20.0977 15.7088C21.7645 15.4282 23.1856 14.4153 24.0771 13.1354C24.5801 12.4542 24.9337 11.6979 25.2691 10.9387C25.4019 10.6341 25.6343 10.2889 26.0444 10.2874C26.6835 10.3144 27.1716 10.7496 27.6082 11.1262C28.6923 12.1406 29.5373 13.347 30.228 14.6074C30.5202 15.1851 30.8489 15.7853 30.8356 16.4365C30.4587 16.9992 29.5606 17.1403 28.9596 16.7877C27.8075 16.1694 27.1201 15.0831 26.3465 14.1347C24.8989 16.0374 22.7224 17.4824 20.2554 18.0991C18.0125 18.6828 15.5771 18.5703 13.394 17.8395C12.0493 20.7535 11.7687 24.2017 13.2163 27.1292C14.3569 29.4595 16.7375 31.2121 19.4519 31.8588C22.2343 32.5445 25.3405 32.1679 27.7792 30.7589C29.7747 29.62 31.2191 27.7609 31.8167 25.7052C31.9977 25.024 32.27 24.3502 32.265 23.6405C32.2783 21.8984 31.8865 20.1563 32.1189 18.4157C32.2085 17.841 32.3961 17.1988 32.9705 16.8642C33.4105 16.6061 33.9517 16.6841 34.4448 16.7216C35.6998 14.6269 36.6378 12.2336 36.256 9.82078C35.9572 7.79659 34.5776 6.00347 32.758 4.83457C30.1516 3.139 26.9159 2.42775 23.75 2.25519C19.8686 2.07963 15.8626 2.71735 12.461 4.46845ZM34.8664 19.4015C34.8498 20.7865 34.8432 22.1715 34.8532 23.558C35.4292 23.2023 35.9223 22.7042 36.085 22.077C36.4071 21.0536 35.8327 19.9582 34.8664 19.4015ZM8.29896 21.1872C8.19437 22.134 8.7389 23.0553 9.62542 23.552C9.62708 22.8572 9.61546 22.164 9.61712 21.4707C9.1722 21.4017 8.7306 21.3072 8.29896 21.1872ZM20.2189 34.5192C20.0844 35.1449 20.1209 35.7976 20.3799 36.3948C20.9195 37.7078 21.9521 38.7822 22.9017 39.8685C23.3549 39.3719 23.8081 38.8737 24.2165 38.3455C25.1346 37.1751 25.9547 35.7481 25.5729 34.2701C23.8297 34.6828 22.0002 34.7698 20.2189 34.5192ZM15.5356 39.0733C16.3756 40.5993 17.2206 42.1238 18.0657 43.6468C19.0584 42.9776 20.0495 42.3039 21.0407 41.6301C20.1541 40.5633 19.2676 39.4964 18.3811 38.431C17.4331 38.6486 16.4819 38.8527 15.5356 39.0733ZM27.419 38.4295C26.5358 39.4979 25.6459 40.5633 24.7611 41.6301C25.7522 42.3039 26.745 42.9746 27.7361 43.6468C28.5827 42.1238 29.4244 40.5978 30.2678 39.0733C29.3182 38.8587 28.3702 38.6351 27.419 38.4295ZM11.5446 40.5978C11.8633 41.2565 12.187 41.9137 12.5025 42.574C12.9789 42.2513 13.4853 41.9677 14.0232 41.7352C13.6994 41.1079 13.3608 40.4882 13.0055 39.876C12.5108 40.1041 12.0243 40.3457 11.5446 40.5978ZM30.7326 43.7864C30.2612 44.6642 29.7698 45.593 28.8583 46.1662C28.8683 47.032 28.191 47.6922 27.5601 48.2669C25.3255 50.3016 23.4114 52.5989 21.2133 54.6651C21.7529 55.1347 22.3173 55.5819 22.905 56.002C24.1601 55.1167 25.2857 54.0874 26.31 52.9875C29.7034 49.2872 32.177 44.9793 34.2655 40.5813C33.7873 40.3262 33.2993 40.0861 32.8045 39.861C32.0492 41.141 31.405 42.4704 30.7326 43.7864ZM3.77337 50.1996C2.47845 55.3208 2.97815 60.6071 2.97151 65.8109C2.87855 66.4711 3.75013 66.6197 4.27806 66.7637C6.61888 67.2364 9.03441 67.2319 11.4201 67.2964C18.4541 67.3969 25.4832 67.0488 32.5157 66.9303C33.7442 66.9243 34.981 66.8717 36.2012 67.0428C36.2892 66.234 36.2909 65.4222 36.2826 64.6105C36.1962 59.4157 35.8293 54.2164 36.1431 49.0217C36.2743 47.4791 36.3772 45.9096 36.925 44.4331C37.0944 43.9424 37.4081 43.5043 37.8315 43.1622C37.3982 42.7645 36.9499 42.3804 36.4851 42.0158C34.9146 45.743 33.1133 49.4568 30.4039 52.6364C28.8517 54.4115 26.9209 56.1086 24.4274 56.6878C22.5099 57.1469 20.453 56.6518 18.8443 55.6554C16.872 54.452 15.3629 52.7384 14.0697 50.9558C12.0874 48.1814 10.6215 45.1383 9.3349 42.0563C6.31175 43.9214 4.55862 47.0395 3.77337 50.1996ZM18.9655 46.0611C18.5139 46.2757 17.9959 46.2742 17.5145 46.3838C16.8222 46.8414 16.2395 47.4206 15.5904 47.9278C16.1747 48.8176 16.8039 49.6819 17.4315 50.5492C18.9754 48.2609 20.8796 46.1557 23.1889 44.4661C23.4313 44.2425 23.7832 44.307 24.0904 44.3311C23.6654 44.0415 23.2802 43.7083 22.9017 43.3722C21.6831 44.3671 20.4646 45.4174 18.9655 46.0611ZM13.4886 44.4136C13.9285 45.2224 14.4 46.0176 14.8798 46.8069C15.3015 46.3747 15.7348 45.9546 16.1847 45.5465C15.6916 44.9148 15.27 44.2395 14.9246 43.5328C14.4781 43.8674 13.9966 44.1615 13.4886 44.4136ZM44.2795 44.109C42.5911 44.3055 40.7118 44.6537 39.5863 45.9156C38.4225 47.3021 38.5155 49.1537 38.5536 50.8043C38.8077 54.8391 39.216 58.886 38.8326 62.9254C39.9714 62.4572 41.2365 62.3807 42.4666 62.2877C47.4405 61.9981 52.4243 62.4347 57.3997 62.2862C57.1441 60.9162 57.3001 59.5237 57.3649 58.1478C57.5608 54.7491 57.9094 51.3309 57.5043 47.9353C57.3167 46.8084 57.1175 45.5615 56.2094 44.7032C55.801 44.295 55.1685 44.244 54.5991 44.247C51.1675 44.04 47.7111 43.7729 44.2795 44.109ZM24.2697 44.4781C24.3361 44.6041 24.4705 44.8562 24.5386 44.9808C24.6316 45.3784 24.2248 45.6575 23.9891 45.9411C22.1945 47.9023 20.2189 49.7224 18.1204 51.4165C18.841 52.3003 19.6162 53.1481 20.4413 53.9538C22.0749 51.0473 24.1451 48.3509 26.5474 45.9216C25.7505 45.4909 24.9686 45.0318 24.2697 44.4781ZM40.3665 65.0861C39.7174 65.3307 39.0816 65.7689 38.9039 66.4141C38.7446 67.1418 38.7844 68.0211 39.4501 68.5463C40.3217 69.2471 41.5303 69.4301 42.6493 69.5622C45.4167 69.8157 48.1992 69.5787 50.965 69.4316C52.2333 69.3701 53.515 69.2666 54.7767 69.4571C54.775 68.7279 54.7767 68.0001 54.775 67.2709C52.499 67.1598 50.2113 67.1748 47.9435 67.3954C46.4012 67.583 44.8307 67.4299 43.3183 67.1283C42.9315 67.0953 42.9282 66.5056 43.3133 66.4726C46.4444 66.033 49.6136 65.8289 52.7812 65.8004C53.4735 65.7884 54.0562 66.2145 54.7468 66.2415C54.78 65.7283 54.785 65.2152 54.775 64.7035C53.6744 64.8656 52.5554 64.801 51.4481 64.7485C49.0143 64.6225 46.5788 64.4244 44.1384 64.5024C42.8651 64.5535 41.5569 64.6375 40.3665 65.0861Z" fill="#F37915"/>
<path d="M11.8168 10.6281C12.2003 10.3775 12.5241 10.8067 12.8113 10.9853C15.333 12.9524 19.1597 13.3336 22.1164 11.9621C22.6776 11.587 23.4429 12.2877 23.0328 12.7874C22.0168 13.7717 20.5194 14.2624 19.0584 14.3764C16.2428 14.5775 13.2628 13.3906 11.7454 11.1968C11.5927 11.0273 11.5861 10.7482 11.8168 10.6281Z" fill="#F37915"/>
<path d="M52.3578 47.7613C53.2925 47.6563 54.3085 47.6308 55.1535 48.0674C55.6864 48.336 56.0832 48.8882 56.0085 49.4509C55.9371 49.9131 55.4889 50.3422 54.9527 50.3317C51.3501 50.4442 47.7476 50.5823 44.1434 50.5478C43.3432 50.6183 42.8053 49.676 43.2618 49.1073C43.3963 48.9197 43.6437 48.8492 43.8728 48.8057C46.6801 48.333 49.5206 48.0419 52.3578 47.7613Z" fill="#F37915"/>
<path d="M50.2079 53.915C51.38 53.7619 52.7629 53.6869 53.691 54.4822C54.0695 54.7117 54.2255 55.2354 53.8918 55.555C53.329 56.0367 52.562 56.3338 51.7834 56.3413C50.1183 56.3728 48.4515 56.2603 46.7897 56.3773C46.4826 56.3788 46.1455 56.4508 45.8666 56.3038C45.4433 56.1012 45.2773 55.5745 45.518 55.2009C45.6691 54.9128 46.0277 54.8168 46.3348 54.7237C47.6032 54.3756 48.8931 54.083 50.2079 53.915Z" fill="#F37915"/>
<path d="M6.15569 56.0755C6.63879 55.8129 7.3842 56.3066 7.15012 56.8018C6.8928 57.381 6.56907 57.9512 6.5176 58.5859C6.30012 60.1254 7.05881 61.737 8.44172 62.6598C8.87834 62.9959 9.53078 63.269 9.58723 63.8512C9.67688 64.4679 8.96965 65.0351 8.30393 64.8625C7.65315 64.675 7.07541 64.3103 6.57571 63.8962C4.50715 62.0896 4.14192 58.979 5.57463 56.7538C5.73899 56.5107 5.8967 56.2481 6.15569 56.0755Z" fill="#F37915"/>
<path d="M11.9878 63.185C12.8212 62.7544 13.9402 63.4761 13.7741 64.3254C13.6994 65.1147 12.5855 65.5798 11.8699 65.1177C11.0864 64.6945 11.1511 63.5241 11.9878 63.185Z" fill="#F37915"/>
<path d="M41.2116 66.4847C41.5585 66.4396 41.9321 66.4787 42.2375 66.6422C42.548 66.8253 42.4152 67.2994 42.0549 67.352C41.6266 67.4645 40.9044 67.595 40.7201 67.0984C40.5425 66.7833 40.8795 66.5042 41.2116 66.4847Z" fill="#F37915"/>
</svg>
