<svg width="78" height="78" viewBox="0 0 78 78" fill="none" xmlns="http://www.w3.org/2000/svg">
<path d="M11.4212 6.54163C12.055 6.01452 12.8898 5.79819 13.7033 5.81952C33.1058 5.81952 52.5098 5.81952 71.9123 5.81952C72.8736 5.78144 73.8593 6.11812 74.5235 6.82956C75.5625 7.92187 75.9342 9.4971 75.8855 10.9687C75.8245 12.3825 75.3568 13.8816 74.2432 14.82C73.6414 15.3425 72.8432 15.5497 72.0632 15.5878C71.4385 23.6285 71.5132 31.7164 72.1957 39.751C72.4075 42.5938 72.7289 45.4319 72.7472 48.2853C72.7319 50.0998 72.6146 52.1076 71.3913 53.561C70.1528 54.99 68.2028 55.447 66.4143 55.7395C62.9347 56.2225 59.408 56.1585 55.9041 56.1234C51.9446 56.0625 47.9883 55.9086 44.0319 55.7913C44.0334 56.844 44.0334 57.8967 44.0334 58.9494C44.7388 59.3577 45.6544 59.3242 46.2424 59.9412C46.9143 60.6267 47.4124 61.4783 47.7933 62.3558C48.36 64.0666 47.356 65.8582 46.052 66.9337C44.3793 68.4084 41.5914 68.154 40.1152 66.5163C38.6176 64.9533 38.5094 62.3528 39.7312 60.5978C40.1913 59.8894 40.8616 59.3501 41.5944 58.9433C41.5975 57.8921 41.5959 56.8394 41.5944 55.7883C39.5301 55.7898 37.4644 55.7852 35.3986 55.7898C36.3279 58.4863 37.1368 61.2742 37.2115 64.1443C37.2648 66.1461 36.8032 68.3109 35.3178 69.7536C33.671 71.3563 31.3036 71.8621 29.09 72.0647C24.9813 72.3983 20.8726 71.8651 16.7776 71.5878C13.7307 71.3548 10.661 71.1537 7.61261 71.4568C7.10683 71.4949 6.60409 71.6427 6.09527 71.5939C4.83538 71.3365 3.78574 70.4255 3.17788 69.3134C2.36132 67.8356 2.1191 66.1126 2.10995 64.4444C2.14499 61.0319 3.14894 57.6423 4.90546 54.7234C6.34663 52.3636 8.40175 50.2628 11.0236 49.2619C12.4571 48.6982 14.0217 48.5261 15.5512 48.6571C15.5512 48.2716 15.5512 47.8862 15.5512 47.5023C12.2423 45.988 9.87796 42.6562 9.56566 39.0274C8.19609 38.5582 7.0337 37.4857 6.55839 36.1055C6.00843 34.6353 6.29636 32.9367 7.20585 31.6723C6.39843 30.4916 6.04042 28.9986 6.34968 27.591C6.80519 25.2951 8.73538 23.2416 11.115 22.9841C11.9559 22.882 12.7969 23.0831 13.5662 23.4167C13.5632 20.8071 13.5662 18.1975 13.5632 15.5878C12.6735 15.5558 11.7716 15.2603 11.147 14.6037C10.0227 13.4565 9.65402 11.7609 9.75456 10.2009C9.85054 8.84355 10.3396 7.42523 11.4212 6.54163ZM25.9822 8.41241C25.1916 9.61593 23.7412 10.0135 22.591 10.7585C24.4314 10.6321 26.2717 10.501 28.115 10.4127C29.058 9.35999 30.4215 8.64702 31.852 8.65616C32.1978 8.67444 32.3822 9.09796 32.2222 9.38589C32.0105 9.73933 31.6662 9.98612 31.3782 10.2725C32.4507 10.2375 33.5248 10.2238 34.5973 10.1766C34.8319 10.1903 35.0086 10.0257 35.1899 9.90234C36.0719 9.22898 37.0546 8.68358 38.0996 8.30425C38.4683 8.08183 38.8888 8.60589 38.6664 8.938C38.287 9.46054 37.7234 9.80331 37.1825 10.1339C38.8583 10.0851 40.5402 10.143 42.2129 10.0562C43.1864 9.42398 44.1827 8.79784 45.3101 8.47335C45.7214 8.35148 46.3186 8.07726 46.6004 8.56933C46.5623 9.3021 45.7641 9.6662 45.2689 10.0943C46.1205 10.0973 46.9706 10.1187 47.8237 10.1141C48.6175 9.40569 49.5468 8.82222 50.5796 8.53886C50.9529 8.37128 51.3916 8.73386 51.3155 9.12995C51.1616 9.53214 50.8386 9.83835 50.5796 10.1735C51.4267 10.1918 52.2752 10.2268 53.1238 10.2329C53.8764 9.44987 54.8331 8.81765 55.9101 8.60437C56.3078 8.54648 56.6414 9.02636 56.4342 9.37675C56.163 9.82921 55.6527 10.044 55.2261 10.3182C56.5652 10.3776 57.9028 10.4462 59.2419 10.5087C59.9305 9.47882 60.8232 8.5937 61.8592 7.91425C58.2044 7.74058 54.5452 7.69792 50.8874 7.72991C42.5816 7.78476 34.2819 8.11534 25.9822 8.41241ZM63.2912 7.99042C63.2531 8.27073 63.2394 8.57847 63.0368 8.79784C62.4442 9.52605 61.6185 10.0075 60.9131 10.6107C61.9399 10.6945 62.9698 10.7753 63.9981 10.853C65.0386 9.96327 66.2878 9.29296 67.6391 9.03093C68.0108 8.938 68.5257 9.33866 68.2942 9.73628C67.9438 10.3837 67.2537 10.725 66.6793 11.1409C67.5888 11.2612 68.4983 11.3999 69.4017 11.5659C70.1406 10.6366 71.0744 9.71952 72.3084 9.56261C69.4505 8.41241 66.3259 8.26312 63.2912 7.99042ZM12.4038 9.34628C12.0291 10.5239 12.1037 11.9209 12.8852 12.9233C12.9568 12.64 12.9111 12.2926 13.1335 12.0687C13.9257 11.2186 14.9221 10.6031 15.8178 9.87491C16.4028 9.41941 17.0991 9.09644 17.8318 8.97456C18.2249 8.90296 18.6118 9.35999 18.3985 9.73323C18.0634 10.4721 17.3839 10.9687 16.7715 11.4669C18.2371 11.1957 19.7224 11.0556 21.2017 10.891C21.2184 10.7951 21.2504 10.6001 21.2657 10.5026C22.2117 9.79265 23.2004 9.14214 24.1724 8.46878C21.0935 8.52515 18.0101 8.6973 14.9312 8.53734C14.4163 8.52819 13.9227 8.37433 13.4215 8.28597C12.8822 8.34538 12.5684 8.88163 12.4038 9.34628ZM73.0336 9.9587C72.9589 10.268 72.9833 10.6412 72.7304 10.8743C72.2429 11.342 71.5985 11.5918 71.0348 11.9483C71.5482 12.1875 72.4181 12.4282 72.1546 13.1838C72.4882 13.0345 72.8934 12.9248 73.0747 12.5744C73.2667 12.1601 73.4236 11.7274 73.5576 11.2902C73.6993 10.7722 73.3581 10.3198 73.0336 9.9587ZM16.0022 13.132C16.0007 16.9467 16.0037 20.7629 16.0007 24.5776C17.0762 24.8016 18.2035 24.5807 19.1466 24.0292C20.6822 23.1593 22.0624 21.8187 23.9043 21.6663C26.4423 21.5201 28.9285 22.8759 30.4093 24.9021C31.555 26.4453 32.1293 28.4867 31.6296 30.3773C31.299 31.6997 30.4444 32.8255 29.41 33.6878C29.6628 36.7575 29.4541 39.9582 28.1729 42.7979C27.3076 44.7555 25.7659 46.4557 23.7748 47.2966C23.7504 47.7521 23.7489 48.2092 23.7595 48.6647C25.222 48.7713 26.6769 49.0379 28.0724 49.4934C30.2875 50.2094 32.4172 51.4389 33.8081 53.3493C45.7473 53.3523 57.6865 53.3508 69.6272 53.3508C69.6272 39.9445 69.6272 26.5383 69.6257 13.132C51.7512 13.132 33.8767 13.1335 16.0022 13.132ZM23.6757 24.6081C21.1682 25.3622 18.8114 26.7394 16.1439 26.8673C14.3843 26.9877 12.6445 26.4118 11.1896 25.4429C10.306 25.7171 9.28839 26.0858 8.89992 27.0075C8.49468 28.1059 9.03245 29.25 9.53214 30.2204C9.76523 30.6409 9.95718 31.0903 10.2603 31.4681C10.8286 31.7652 11.5644 31.6585 12.055 31.2548C12.8548 30.6059 13.0482 29.448 13.9379 28.8844C14.4879 28.534 15.2877 28.7686 15.5787 29.346C15.7676 29.6568 15.6914 30.03 15.6762 30.3712C17.7191 31.6068 19.7803 32.8956 22.0959 33.5476C23.5935 33.9696 25.3226 33.9544 26.6358 33.0281C28.0358 32.0348 28.8966 30.4291 29.3795 28.8189C28.9575 27.3914 28.3542 25.8939 27.1476 24.9509C26.1589 24.1907 24.8107 24.2684 23.6757 24.6081ZM11.569 33.9102C10.6762 33.8919 9.85054 33.4867 8.96542 33.4014C8.68511 34.0092 8.37281 34.7694 8.79785 35.3879C9.51996 36.398 10.9413 36.5275 11.7152 37.4811C12.0306 37.8681 11.9742 38.3967 12.055 38.8598C12.3277 41.046 13.3087 43.2626 15.1597 44.5529C16.9696 45.8539 19.4055 46.0885 21.4972 45.3969C23.7946 44.6733 25.7278 42.8726 26.5825 40.6164C27.2558 38.9314 27.2985 37.0576 26.9785 35.2904C25.0423 36.401 22.6779 36.3812 20.5496 35.9409C18.2416 35.4321 15.9291 34.3596 14.4681 32.4385C13.7307 33.2658 12.6963 33.8767 11.569 33.9102ZM17.9278 48.2198C17.9263 48.558 17.9202 48.9191 18.1167 49.2146C18.5783 49.9825 19.2852 50.5553 19.9144 51.1799C20.9016 50.5202 21.4546 49.3426 21.3388 48.1604C20.213 48.3646 19.0612 48.3813 17.9278 48.2198ZM12.4221 51.7024C13.263 52.5464 14.107 53.3873 14.948 54.2313C15.8742 53.6357 16.7974 53.0354 17.7206 52.4367C17.2453 51.9599 16.7685 51.483 16.2916 51.0077C15.0028 51.2484 13.7109 51.4678 12.4221 51.7024ZM21.8811 52.6378C22.7084 53.168 23.5356 53.7012 24.3643 54.2344C25.2083 53.3904 26.0523 52.5479 26.8948 51.7039C25.7385 51.4998 24.5868 51.2819 23.4305 51.0839C22.9125 51.6003 22.396 52.1168 21.8811 52.6378ZM5.76011 57.8541C4.73788 61.1691 4.94355 64.6882 5.04257 68.1098C5.07152 68.7832 5.84238 69.0117 6.38929 69.129C9.19851 69.6317 12.0473 68.9828 14.8703 69.1671C15.175 64.999 15.4507 60.8309 15.7767 56.6643C15.2953 57.0588 14.6204 57.0588 14.1131 56.713C12.4678 55.706 11.4821 53.9662 10.0334 52.7353C7.93406 53.7073 6.41824 55.6618 5.76011 57.8541ZM25.4003 56.6338C24.8945 57.1457 24.084 57.0512 23.5401 56.6551C23.8601 60.8232 24.1419 64.9959 24.4466 69.1656C27.268 68.9873 30.1153 69.6302 32.923 69.129C33.4699 69.0117 34.2408 68.7817 34.2636 68.1068C34.3566 64.6044 34.579 60.9878 33.4608 57.6103C32.7813 55.5247 31.3005 53.6844 29.2896 52.7551C27.9916 54.0455 26.7104 55.3556 25.4003 56.6338ZM18.8144 54.9092C18.3026 56.1189 18.1685 57.4412 18.0116 58.7331C18.6545 58.0308 19.3979 57.3879 20.2907 57.0299C20.6563 56.8364 21.1255 57.1761 21.063 57.5814C20.9884 57.9698 20.6456 58.2151 20.3546 58.4452C19.4573 59.0987 18.5996 59.8254 17.9034 60.6937C17.7359 61.1096 17.8029 61.591 17.7435 62.0344C18.656 60.7547 19.9022 59.7264 21.3357 59.0819C21.2002 57.6697 21.0554 56.2255 20.4918 54.9092C20.312 54.5497 20.0941 54.0896 19.6447 54.0409C19.2014 54.0988 18.9835 54.5482 18.8144 54.9092ZM17.6384 64.126C17.5957 64.8451 17.5683 65.5657 17.5363 66.2878C18.755 65.2564 19.9738 63.9524 21.6694 63.8427C21.616 62.8936 21.5551 61.9445 21.5064 60.9939C19.9921 61.7312 18.784 62.921 17.6384 64.126ZM42.6882 61.425C41.6782 61.8759 41.4192 63.2425 41.8123 64.1946C42.1337 65.0751 43.4103 65.5169 44.1385 64.8664C44.5377 64.478 44.9643 64.0605 45.1379 63.5167C44.9429 62.7443 44.3716 62.1486 43.8339 61.5926C43.552 61.2742 43.0569 61.3016 42.6882 61.425ZM18.8251 67.1135C18.4534 67.4654 18.0162 67.8051 17.4693 67.6817C17.4434 68.1875 17.39 68.6918 17.3184 69.1945C17.9034 69.1945 18.4884 69.1945 19.0734 69.1945C19.0551 68.6141 19.5411 68.2561 19.9296 67.9103C20.1855 67.6955 20.443 67.473 20.7416 67.3207C21.0889 67.1105 21.549 67.5843 21.3403 67.9286C21.0889 68.4145 20.6852 68.7969 20.3196 69.196C20.8802 69.193 21.4424 69.1945 22.003 69.1945C21.8324 67.8417 21.741 66.4798 21.7288 65.1163C20.7797 65.8094 19.7194 66.3457 18.8251 67.1135Z" fill="#606060"/>
<path d="M60.8065 22.4189C61.6413 22.4204 62.6879 22.0091 63.3476 22.719C64.1032 23.4762 63.6766 25.1504 62.467 25.0392C54.4705 24.8671 46.4298 25.4764 38.4729 24.4207C38.0859 24.3613 37.6289 24.503 37.3105 24.2166C37.0073 23.9743 36.9723 23.4975 37.2084 23.1974C37.4994 22.7693 38.0692 22.7434 38.5369 22.7312C41.992 22.716 45.4472 22.6642 48.9023 22.6977C52.8709 22.7175 56.8471 22.7434 60.8065 22.4189Z" fill="#606060"/>
<path d="M27.7921 26.2564C28.24 26.0553 28.4548 26.5977 28.4746 26.9511C28.8509 29.2652 26.779 31.4331 24.5258 31.5854C24.0932 31.6007 23.5721 31.6464 23.2431 31.3036C22.8805 30.9547 22.8927 30.3118 23.269 29.9782C23.5584 29.6781 24.0078 29.7573 24.3811 29.704C25.8192 29.6309 27.0821 28.502 27.4173 27.1187C27.5361 26.8338 27.5011 26.4332 27.7921 26.2564Z" fill="#606060"/>
<path d="M51.0915 28.5538C53.107 28.5172 55.121 28.5462 57.135 28.6025C58.8504 28.6254 60.6587 28.3222 62.2918 29.0017C63.1282 29.3521 63.1328 30.7125 62.2857 31.0522C60.386 31.7637 58.3385 31.1863 56.3733 31.3036C50.1196 31.1695 43.8537 31.4605 37.6091 31.0126C37.0667 31.005 36.6889 30.3575 36.89 29.8716C36.9967 29.6126 37.2922 29.5471 37.5405 29.5136C42.0362 28.9514 46.5623 28.6269 51.0915 28.5538Z" fill="#606060"/>
<path d="M52.8008 35.4717C55.0555 35.327 57.3163 35.295 59.5755 35.3468C60.5825 35.3697 61.6505 35.2402 62.598 35.6561C63.3902 35.979 63.6644 37.1505 63.0733 37.7721C62.5356 38.2581 61.7525 38.2322 61.0746 38.2337C56.8653 38.0159 52.6454 38.0037 48.4346 38.1728C47.7171 38.1789 46.8944 38.2733 46.3079 37.7706C45.9453 37.5131 45.8875 36.9251 46.2226 36.6234C46.6705 36.2334 47.2479 36.0049 47.8359 35.9333C49.4889 35.7566 51.1403 35.5677 52.8008 35.4717Z" fill="#606060"/>
<path d="M42.1139 36.8032C42.8208 36.6478 43.5673 36.6372 44.2696 36.823C44.7647 36.9418 44.9262 37.6579 44.5423 37.9854C44.1111 38.3663 43.4957 38.3068 42.9625 38.3541C42.315 38.3617 41.6477 38.5125 41.0109 38.3373C40.5234 38.1713 40.5387 37.3928 40.9835 37.1825C41.337 36.9967 41.7285 36.8992 42.1139 36.8032Z" fill="#606060"/>
<path d="M55.9787 42.6212C58.1374 42.4277 60.3129 42.4079 62.4746 42.5724C63.1937 42.606 63.7406 43.3326 63.6919 44.0288C63.669 44.6763 63.1404 45.3268 62.467 45.3451C58.5061 45.5249 54.5406 45.4045 50.5766 45.3771C50.2186 45.3756 49.7981 45.3573 49.5681 45.0358C49.1598 44.5697 49.4279 43.7409 50.0464 43.6267C51.9919 43.1376 53.9784 42.804 55.9787 42.6212Z" fill="#606060"/>
<path d="M46.9523 43.1376C47.5922 42.8528 48.3341 43.5063 48.2077 44.1751C48.1437 44.8424 47.2768 45.2659 46.7406 44.8241C46.1297 44.4189 46.2592 43.3768 46.9523 43.1376Z" fill="#606060"/>
<path d="M30.0452 60.5033C30.5754 60.3814 31.1969 60.3052 31.6677 60.6419C32.1582 60.9984 32.0912 61.8851 31.5092 62.109C30.3271 62.5219 29.0245 62.5935 27.7982 62.3497C27.2558 62.2568 27.172 61.396 27.6976 61.2117C28.4487 60.8872 29.2485 60.6846 30.0452 60.5033Z" fill="#606060"/>
<path d="M26.0782 61.2818C26.7363 61.0578 27.4005 61.8287 27.1233 62.4548C26.9405 63.0231 26.1361 63.2394 25.7202 62.7885C25.2266 62.3543 25.4399 61.4478 26.0782 61.2818Z" fill="#606060"/>
</svg>
