<svg width="27" height="27" viewBox="0 0 27 27" fill="none" xmlns="http://www.w3.org/2000/svg">
<path fill-rule="evenodd" clip-rule="evenodd" d="M10.3563 18.3225L13.7697 22.8738C15.7832 25.5584 16.7899 26.9007 18.0018 26.9687C18.3759 26.9897 18.766 26.926 19.1141 26.7872C20.2414 26.3374 20.762 24.7662 21.8032 21.6239C22.4401 19.7014 23.0736 17.7069 23.5709 15.9663C24.2622 13.5467 25.2166 10.063 26.0777 6.88626C26.9056 3.83172 27.3196 2.30446 26.6859 1.32733C26.4873 1.02119 26.2232 0.75705 25.917 0.558492C24.9399 -0.0752554 23.4127 0.338731 20.3581 1.1667C17.1814 2.0278 13.6977 2.98216 11.2781 3.67348C9.53745 4.17082 7.54295 4.80428 5.62052 5.44123C2.47816 6.48237 0.906968 7.00294 0.457216 8.1303C0.318348 8.47839 0.254692 8.86843 0.275681 9.24261C0.343659 10.4545 1.68595 11.4612 4.37055 13.4746L8.92216 16.8883L15.6832 10.1273C16.0792 9.7313 16.7213 9.7313 17.1173 10.1273C17.5134 10.5234 17.5134 11.1655 17.1173 11.5615L10.3563 18.3225Z" fill="white"/>
</svg>
