<svg width="74" height="81" viewBox="0 0 74 81" fill="none" xmlns="http://www.w3.org/2000/svg">
<path d="M66.1655 0.930373C66.8046 0.650668 67.5982 1.28696 67.4139 1.9625C67.037 3.18601 66.4626 4.34899 65.7903 5.44C65.518 5.94871 64.7493 6.05666 64.3426 5.64774C64.0189 5.35985 63.9575 4.85115 64.1949 4.49293C64.6597 3.68162 65.1129 2.85723 65.43 1.97559C65.5877 1.58302 65.7073 1.08249 66.1655 0.930373Z" fill="#F37915"/>
<path d="M23.6356 1.91662C27.1684 1.22145 30.7776 0.794533 34.3834 0.96301C38.1553 1.12822 41.8691 1.88227 45.5247 2.77046C51.4465 4.23768 57.3168 5.89792 63.2087 7.47147C63.4943 7.54834 63.7831 7.62031 64.0571 7.73318C64.7311 8.0047 65.1511 8.77512 65.01 9.48011C64.756 10.5531 64.2662 11.5673 63.6188 12.4653C63.403 12.7842 62.973 12.8039 62.6326 12.902C59.6427 13.4941 56.6528 14.0764 53.6628 14.6686C54.307 17.6374 54.9694 20.6699 54.6656 23.7222C54.4929 25.6147 53.8604 27.4679 52.7846 29.0496C60.081 34.9725 64.4804 44.3238 63.9824 53.662C63.6155 60.6383 60.4678 67.3741 55.5222 72.3516C52.1803 75.7865 47.8788 78.2826 43.2254 79.5421C34.8101 81.8681 25.3439 80.3452 18.2202 75.322C16.8655 74.3913 15.6353 73.3019 14.4566 72.1667C10.9221 69.2192 8.07992 65.3884 6.66381 61.0194C4.89408 55.8228 4.68823 50.1649 5.83871 44.8145C5.12485 43.9983 5.63119 42.9008 5.71752 41.9651C6.18237 39.5279 6.277 36.9795 7.24819 34.665C6.94438 34.328 6.62563 33.978 6.50444 33.5331C6.21723 32.6613 6.59574 31.6259 7.38598 31.1433C7.71635 30.9552 8.07826 30.8293 8.42524 30.6755C8.2144 26.4472 8.01518 22.2206 7.80434 17.9939C7.75453 16.6788 7.66156 15.3506 7.92055 14.0503C5.82543 13.5154 3.71703 13.0312 1.62524 12.4865C1.20522 12.3851 0.966156 11.9975 0.853265 11.6131C0.644086 10.9817 0.441546 10.347 0.139398 9.75163C-0.26236 8.95014 0.245648 7.86731 1.13383 7.66448C4.72807 6.66179 8.33061 5.68855 11.9315 4.71367C15.8129 3.70445 19.6894 2.66087 23.6356 1.91662ZM19.286 4.75293C13.7643 6.09257 8.2891 7.60886 2.81391 9.11862C5.37719 9.67639 7.94047 10.2325 10.5137 10.7363C11.1628 10.6464 11.7804 10.3503 12.4428 10.2881C18.1521 9.38524 23.8829 8.61646 29.5972 7.74954C30.1583 7.17704 30.9619 6.93332 31.7272 6.75666C32.6419 6.58328 33.6961 6.54729 34.4897 7.10507C35.2534 7.64812 35.255 8.88144 34.5328 9.46211C33.4388 10.3748 31.7787 10.3143 30.5634 9.67148C30.2065 9.44412 29.7848 9.61751 29.4013 9.65186C24.6997 10.3421 19.9982 11.0455 15.2933 11.721C19.452 12.5798 23.609 13.4385 27.7412 14.4134C29.1606 14.7356 30.6215 15.2034 32.0825 14.801C42.2758 13.2439 52.3314 10.9457 62.4899 9.19877C56.5465 7.6105 50.6297 5.92409 44.6498 4.46668C40.7966 3.5556 36.8687 2.80972 32.891 2.81135C28.2857 2.78518 23.7468 3.71099 19.286 4.75293ZM9.73676 14.4854C9.52758 15.6614 9.64213 16.8588 9.68363 18.0446C9.89946 22.2337 10.0738 26.4276 10.3095 30.6166C10.5735 30.8947 10.9503 31.0599 11.1628 31.3903C11.4567 31.7829 11.538 32.2769 11.6078 32.748C12.6271 31.5539 13.8158 30.5201 15.0011 29.4913C13.3443 28.0584 12.3349 25.914 12.3731 23.7352C12.476 20.9022 12.7632 18.0806 13.067 15.2623C11.9564 15.0055 10.8474 14.7405 9.73676 14.4854ZM39.8952 17.4492C37.1874 17.9808 34.4814 18.5435 31.7438 18.9017C30.9071 19.0342 30.0886 18.7627 29.2718 18.6351C24.454 17.8026 19.6761 16.7639 14.9115 15.6876C14.6309 18.4159 14.3271 21.1459 14.2474 23.8906C14.2474 25.438 14.9663 26.9445 16.1101 27.9946C17.1842 29.0087 18.5837 29.5763 19.9484 30.1047C22.8902 31.199 25.9714 31.9285 29.0925 32.2916C32.1804 32.6547 35.3131 32.5124 38.3827 32.0544C41.6948 31.5424 44.9536 30.6461 48.0166 29.295C49.7366 28.5311 51.1278 27.0132 51.5777 25.1894C51.8632 24.1229 51.7005 23.0155 51.6706 21.9311C51.5826 19.6738 51.4764 17.4149 51.1992 15.1707C47.4306 15.9346 43.6687 16.7197 39.8952 17.4492ZM11.5596 35.8214C15.5838 37.4408 19.8156 38.5416 24.117 39.1583C24.4789 37.4621 24.9554 35.7936 25.4999 34.1465C23.9029 33.7277 22.3274 33.2011 20.8415 32.483C19.4719 31.7535 17.9462 31.3658 16.5816 30.6248C14.6508 32.092 12.9591 33.8553 11.5596 35.8214ZM46.8379 32.8739C44.8424 33.4382 42.8054 33.8472 40.7684 34.2315C41.3528 35.8231 41.8342 37.449 42.2576 39.0896C46.569 38.4369 50.8273 37.4163 54.9345 35.9588C53.7359 34.1841 52.3065 32.5664 50.6762 31.1662C49.5075 31.9497 48.191 32.4879 46.8379 32.8739ZM27.346 34.5341C26.8115 36.1273 26.34 37.7385 25.9897 39.3807C30.7643 39.9042 35.5954 39.8633 40.3683 39.3251C39.9865 37.696 39.4569 36.1061 38.8825 34.5325C35.0641 35.0707 31.1561 35.2113 27.346 34.5341ZM42.7158 40.8774C43.6089 44.8014 44.1136 48.8073 44.2481 52.8262C49.4842 52.4762 54.6871 51.7532 59.832 50.7456C59.6261 46.1329 58.293 41.5693 55.9522 37.5667C51.6673 39.1043 47.2247 40.2084 42.7158 40.8774ZM12.0809 38.0149C12.5706 39.7079 13.0753 41.3943 13.5551 43.0905C13.6879 43.609 13.8423 44.1439 13.7759 44.6853C13.7128 45.1613 13.3111 45.6062 12.8097 45.6373C12.1191 45.6422 11.9896 44.6624 11.3189 44.6477C10.698 44.7671 10.5884 45.6078 9.97084 45.7551C9.37319 45.8843 8.76225 45.477 8.53315 44.9438C8.2476 44.3091 8.37377 43.5992 8.37543 42.9286C8.32231 42.9973 8.21772 43.133 8.16459 43.2017C7.55531 45.2905 7.22992 47.4513 7.06391 49.6169C12.2038 50.8683 17.4249 51.7957 22.6876 52.3764C22.6212 48.5505 22.9898 44.7213 23.7286 40.9657C19.7558 40.3834 15.8412 39.4118 12.0809 38.0149ZM25.5912 41.1915C24.8508 44.9323 24.4789 48.7484 24.5653 52.5612C30.4821 53.1157 36.4404 53.2466 42.3754 52.9407C42.2493 48.9676 41.7396 45.0043 40.8448 41.1277C35.7846 41.7312 30.6547 41.7754 25.5912 41.1915ZM6.99418 51.4996C6.99252 56.8746 8.47172 62.3558 11.7555 66.7051C15.9441 65.6877 20.2157 65.0024 24.5155 64.6474C23.614 61.237 22.9964 57.7513 22.769 54.2329C17.4581 53.6604 12.1855 52.7428 6.99418 51.4996ZM44.2713 54.6811C44.2497 58.2338 43.8613 61.7784 43.2072 65.2722C46.9907 65.8317 50.731 66.661 54.3999 67.7291C57.7634 63.4174 59.6792 58.0457 59.8386 52.6136C54.7021 53.6375 49.4992 54.3212 44.2713 54.6811ZM24.6665 54.4406C24.9023 57.8478 25.5232 61.2239 26.4163 64.5231C31.3952 64.2418 36.4005 64.3972 41.3478 65.0122C41.9903 61.6443 42.3671 58.224 42.3953 54.7956C36.4869 55.0965 30.5584 54.9771 24.6665 54.4406ZM26.9476 66.342C28.1014 70.1156 29.5823 73.7975 31.445 77.2865C33.6148 77.4762 35.8062 77.3846 37.9511 77.0182C39.1713 73.6863 40.1907 70.284 40.9593 66.8229C36.3142 66.2553 31.6209 66.0999 26.9476 66.342ZM13.082 68.2983C17.2672 72.8603 23.0927 75.816 29.1888 76.9708C27.5087 73.5963 26.0876 70.0894 25.0417 66.4745C21.0125 66.746 17.0149 67.3987 13.082 68.2983ZM42.8087 67.0928C42.1148 70.3069 41.1818 73.4671 40.0927 76.5717C44.9752 75.3645 49.6386 72.965 53.0652 69.283C49.7 68.3326 46.2735 67.5917 42.8087 67.0928Z" fill="#F37915"/>
<path d="M71.8133 4.50105C72.416 4.22953 73.1597 4.77258 73.0867 5.41704C73.0734 5.86196 72.6949 6.16947 72.2964 6.29542C70.8903 6.82538 69.5024 7.40606 68.0879 7.90985C67.575 8.11432 66.959 7.74465 66.8926 7.20977C66.7748 6.74851 67.0918 6.2856 67.5401 6.15475C68.9645 5.60188 70.3839 5.0392 71.8133 4.50105Z" fill="#F37915"/>
<path d="M67.4886 10.8836C67.726 10.7953 67.9867 10.8443 68.2324 10.8721C69.675 11.0799 71.1061 11.4005 72.4807 11.8846C73.095 12.0646 73.3008 12.9151 72.8559 13.3617C72.5538 13.7215 72.0325 13.7117 71.6274 13.5482C70.3208 13.0983 68.9579 12.8513 67.5965 12.6338C66.7133 12.4964 66.6453 11.1371 67.4886 10.8836Z" fill="#F37915"/>
</svg>
