<svg width="30" height="30" viewBox="0 0 30 30" fill="none" xmlns="http://www.w3.org/2000/svg">
<path fill-rule="evenodd" clip-rule="evenodd" d="M2.06201 5.24361C0.897461 7.26067 0.897461 9.96866 0.897461 15.3846C0.897461 20.8006 0.897461 23.5086 2.06201 25.5257C2.82492 26.8471 3.92222 27.9444 5.24361 28.7073C7.26067 29.8718 9.96866 29.8718 15.3846 29.8718C20.8006 29.8718 23.5086 29.8718 25.5257 28.7073C26.8471 27.9444 27.9444 26.8471 28.7073 25.5257C29.8718 23.5086 29.8718 20.8006 29.8718 15.3846C29.8718 9.96866 29.8718 7.26067 28.7073 5.24361C27.9444 3.92222 26.8471 2.82492 25.5257 2.06201C23.5086 0.897461 20.8006 0.897461 15.3846 0.897461C9.96866 0.897461 7.26067 0.897461 5.24361 2.06201C3.92222 2.82492 2.82492 3.92222 2.06201 5.24361ZM16.2461 16.9817L15.9482 17.1679C14.7369 17.9249 13.9855 18.3904 13.4222 18.6545C13.3255 18.6999 13.2468 18.7331 13.1839 18.7573C13.1712 18.6912 13.1576 18.6068 13.1448 18.5008C13.0702 17.8831 13.0667 16.9992 13.0667 15.5708V15.1984C13.0667 13.7701 13.0702 12.8862 13.1448 12.2685C13.1576 12.1625 13.1712 12.0781 13.1839 12.012C13.2468 12.0362 13.3255 12.0694 13.4222 12.1147C13.9855 12.3789 14.7369 12.8443 15.9482 13.6014L16.2461 13.7876C17.3409 14.4718 18.0023 14.8894 18.4327 15.2364C18.5059 15.2954 18.5623 15.3447 18.6054 15.3846C18.5623 15.4246 18.5059 15.4739 18.4327 15.5329C18.0023 15.8799 17.3409 16.2975 16.2461 16.9817ZM17.3211 12.0677C19.42 13.3795 20.4695 14.0355 20.6568 14.9477C20.7159 15.236 20.7159 15.5333 20.6568 15.8216C20.4695 16.7338 19.42 17.3898 17.3211 18.7016L17.0231 18.8878C14.6926 20.3444 13.5273 21.0727 12.5836 20.7878C12.2871 20.6983 12.0132 20.5465 11.7802 20.3426C11.0385 19.6933 11.0385 18.3191 11.0385 15.5708V15.1984C11.0385 12.4502 11.0385 11.076 11.7802 10.4267C12.0132 10.2227 12.2871 10.0709 12.5836 9.98146C13.5273 9.69658 14.6926 10.4249 17.0231 11.8815L17.3211 12.0677Z" fill="white"/>
</svg>
