<svg width="99" height="141" viewBox="0 0 99 141" fill="none" xmlns="http://www.w3.org/2000/svg">
<g clip-path="url(#clip0_3_1049)">
<mask id="mask0_3_1049" style="mask-type:luminance" maskUnits="userSpaceOnUse" x="0" y="0" width="99" height="141">
<path d="M99 0H0V141H99V0Z" fill="white"/>
</mask>
<g mask="url(#mask0_3_1049)">
<mask id="mask1_3_1049" style="mask-type:luminance" maskUnits="userSpaceOnUse" x="0" y="0" width="99" height="141">
<path d="M89.1 0H9.9C4.43238 0 0 4.45608 0 9.95296V131.047C0 136.544 4.43238 141 9.9 141H89.1C94.5676 141 99 136.544 99 131.047V9.95296C99 4.45608 94.5676 0 89.1 0Z" fill="white"/>
</mask>
<g mask="url(#mask1_3_1049)">
<path d="M89.1 0H9.9C4.43238 0 0 4.45608 0 9.95296V131.047C0 136.544 4.43238 141 9.9 141H89.1C94.5676 141 99 136.544 99 131.047V9.95296C99 4.45608 94.5676 0 89.1 0Z" fill="url(#paint0_linear_3_1049)"/>
<path d="M86.8562 145.976C92.2317 143.333 97.3953 140.275 102.3 136.828V134.796C96.2355 139.15 89.761 142.895 82.9689 145.976H86.8562ZM101.431 145.976C101.721 145.794 102.011 145.608 102.3 145.421V145.976H101.431ZM47.9886 145.976C68.2687 143.901 86.8957 136.075 102.3 124.114V122.008C84.2904 136.34 61.677 144.87 37.125 144.87C23.2445 144.884 9.50088 142.113 -3.29999 136.717V138.515C6.1434 142.425 16.1007 144.938 26.2614 145.976H47.9886Z" fill="#FFCE00"/>
<path d="M-3.29999 126.908C9.04861 132.447 22.7288 135.526 37.125 135.526C62.0647 135.526 84.8562 126.286 102.3 111.025V108.812C85.0116 124.391 62.1687 133.867 37.125 133.867C22.7073 133.867 9.01891 130.727 -3.29999 125.088V126.908Z" fill="#FFCE00"/>
<path d="M-3.29999 117.173C8.86878 123.283 22.5968 126.722 37.125 126.722C62.7165 126.722 85.828 116.053 102.3 98.8974V96.4834C86.0605 114.064 62.8719 125.065 37.125 125.065C22.5687 125.065 8.82749 121.549 -3.29999 115.313V117.173Z" fill="#FFCE00"/>
<path d="M-3.29999 104.65C8.54866 111.683 22.3691 115.719 37.125 115.719C64.0712 115.719 87.892 102.263 102.3 81.6704V78.7227C88.3575 100.011 64.3732 114.061 37.125 114.061C22.8696 114.083 8.88319 110.159 -3.29999 102.718V104.65Z" fill="#FFCE00"/>
<path d="M-3.29999 91.4954C8.4355 100.108 22.5951 104.739 37.125 104.716C67.4635 104.716 93.2085 84.9414 102.3 57.5127V51.4912C95.218 81.0746 68.7242 103.057 37.125 103.057C22.53 103.08 8.33004 98.2918 -3.29999 89.427V91.4935V91.4954Z" fill="#FFCE00"/>
<path d="M-3.30014 80.1425C7.73327 90.3059 22.1603 95.9345 37.1249 95.9131C70.2223 95.9131 97.0526 68.9387 97.0526 35.6645C97.0739 21.3816 92.0274 7.55932 82.8198 -3.31787H80.6324C90.1639 7.40353 95.4235 21.2848 95.4028 35.6645C95.4028 68.0235 69.3113 94.2539 37.1249 94.2539C21.4268 94.2539 7.17737 88.0134 -3.30014 77.8664V80.1425Z" fill="#FFCE00"/>
<path d="M-3.29998 67.2102C6.06212 79.3198 20.6894 87.1094 37.125 87.1094C65.3864 87.1094 88.2967 64.0767 88.2967 35.6645C88.2967 20.0815 81.4062 6.11585 70.5193 -3.31787H67.9303C79.3354 5.804 86.6451 19.8758 86.6451 35.6645C86.6451 63.1608 64.4741 85.4508 37.1234 85.4508C20.432 85.4508 5.66942 77.1501 -3.30164 64.4298L-3.29998 67.2102Z" fill="#FFCE00"/>
<path d="M-3.30014 48.6132C2.15311 65.8335 18.1895 78.3064 37.1249 78.3064C60.5499 78.3064 79.5415 59.2148 79.5415 35.6645C79.5415 18.2767 69.1891 3.31908 54.3459 -3.31787H49.7457C66.0806 2.02354 77.8917 17.4572 77.8917 35.6645C77.8917 58.2991 59.6391 76.649 37.1249 76.649C16.4058 76.649 -0.703038 61.1092 -3.30014 40.9893V48.6132ZM-3.30014 30.3396V22.7157C-1.47429 16.9779 1.53681 11.6926 5.53587 7.20625C9.53495 2.71981 14.4317 -0.866542 19.9054 -3.31787H24.504C9.78602 1.49437 -1.25414 14.4979 -3.30014 30.3396ZM6.3177 -3.31787C2.64943 -0.383746 -0.588461 3.05632 -3.30014 6.90046V4.11531C-1.20719 1.40965 1.14792 -1.08031 3.73051 -3.31787H6.3177ZM91.8125 -3.31787H93.8257C97.4304 1.96921 100.283 7.73689 102.3 13.8178V19.8377C100.306 11.5171 96.7456 3.65729 91.8125 -3.31787Z" fill="#FFCE00"/>
<path fill-rule="evenodd" clip-rule="evenodd" d="M37.125 21.6309C33.4229 21.6309 29.8723 23.1094 27.2545 25.7413C24.6367 28.3731 23.166 31.9426 23.166 35.6645C23.166 39.3865 24.6367 42.956 27.2545 45.5878C29.8723 48.2196 33.4229 49.6982 37.125 49.6982C40.8272 49.6982 44.3777 48.2196 46.9955 45.5878C49.6134 42.956 51.084 39.3865 51.084 35.6645C51.084 31.9426 49.6134 28.3731 46.9955 25.7413C44.3777 23.1094 40.8272 21.6309 37.125 21.6309ZM24.816 35.6645C24.816 32.3825 26.1128 29.2349 28.4212 26.9142C30.7296 24.5935 33.8605 23.2897 37.125 23.2897C40.3896 23.2897 43.5204 24.5935 45.8288 26.9142C48.1372 29.2349 49.434 32.3825 49.434 35.6645C49.434 38.9465 48.1372 42.0941 45.8288 44.4149C43.5204 46.7356 40.3896 48.0393 37.125 48.0393C33.8605 48.0393 30.7296 46.7356 28.4212 44.4149C26.1128 42.0941 24.816 38.9465 24.816 35.6645Z" fill="#FFCE00"/>
<path fill-rule="evenodd" clip-rule="evenodd" d="M37.125 12.8276C24.5801 12.8276 14.4095 23.0527 14.4095 35.6647C14.4095 48.2767 24.5801 58.5017 37.125 58.5017C49.6699 58.5017 59.8405 48.2767 59.8405 35.6647C59.8405 23.0527 49.6699 12.8276 37.125 12.8276ZM16.0595 35.6647C16.0595 23.97 25.4909 14.4865 37.125 14.4865C48.7575 14.4865 58.1906 23.9683 58.1906 35.6647C58.1906 47.3594 48.7591 56.8429 37.125 56.8429C25.4925 56.8429 16.0595 47.3611 16.0595 35.6647Z" fill="#FFCE00"/>
<path fill-rule="evenodd" clip-rule="evenodd" d="M37.125 1.82471C18.5344 1.82471 3.465 16.9748 3.465 35.6647C3.465 54.3547 18.5344 69.5048 37.125 69.5048C55.7156 69.5048 70.785 54.3547 70.785 35.6647C70.785 16.9748 55.7156 1.82471 37.125 1.82471ZM5.11499 35.6647C5.11499 17.8921 19.4469 3.48353 37.125 3.48353C54.8031 3.48353 69.1352 17.8921 69.1352 35.6647C69.1352 53.4374 54.8031 67.8462 37.125 67.8462C19.4469 67.8462 5.11499 53.4374 5.11499 35.6647Z" fill="#FFCE00"/>
<path d="M46.7015 21.6979C47.0058 20.9437 47.5273 20.2982 48.1991 19.8441C48.8709 19.39 49.6623 19.1481 50.4718 19.1494H76.5339C79.4062 19.1494 81.3711 22.0462 80.3041 24.7088L60.3457 74.512C60.0414 75.2661 59.5199 75.9113 58.8481 76.3658C58.1763 76.8196 57.3849 77.062 56.5754 77.0607H30.5132C27.641 77.0607 25.6762 74.1639 26.7429 71.5006L46.7015 21.6997V21.6979Z" fill="url(#paint1_linear_3_1049)"/>
<path d="M35.6655 53.8974C37.9499 53.921 40.2164 53.4892 42.3337 52.6266C44.451 51.7641 46.3772 50.4881 48.001 48.8724C49.6247 47.2568 50.9137 45.3334 51.7934 43.2138C52.6731 41.0941 53.126 38.8201 53.126 36.5234C53.126 34.2266 52.6731 31.9526 51.7934 29.8329C50.9137 27.7133 49.6247 25.79 48.001 24.1743C46.3772 22.5587 44.451 21.2826 42.3337 20.4201C40.2164 19.5576 37.9499 19.1257 35.6655 19.1494C31.113 19.1964 26.7628 21.0477 23.5601 24.3008C20.3574 27.554 18.5609 31.9462 18.5609 36.5234C18.5609 41.1005 20.3574 45.4928 23.5601 48.7459C26.7628 51.999 31.113 53.8503 35.6655 53.8974Z" fill="#0A33FF"/>
<path d="M52.6119 37.6784C52.6121 39.8722 52.1533 42.0414 51.2653 44.0453C50.3772 46.0493 49.0797 47.8429 47.4572 49.3099C45.8347 50.7768 43.9234 51.8842 41.8474 52.5601C39.7714 53.236 37.5772 53.4653 35.4073 53.2331L46.5927 25.3218C48.4683 26.7826 49.986 28.6561 51.0294 30.7984C52.0728 32.9406 52.6142 35.2931 52.6119 37.6784Z" fill="url(#paint2_linear_3_1049)"/>
<path fill-rule="evenodd" clip-rule="evenodd" d="M31.1669 88.5264C31.9754 88.5264 32.6337 89.1766 32.6337 89.9779V97.235C32.6337 98.0363 33.2904 98.6866 34.1006 98.6866H38.4995C38.6907 98.6884 38.8805 98.6519 39.0578 98.5802C39.2351 98.5078 39.3966 98.4014 39.533 98.2667C39.6694 98.132 39.778 97.9715 39.8527 97.7946C39.9273 97.6171 39.9664 97.427 39.968 97.235V95.7835C39.968 94.9822 40.623 94.3319 41.4332 94.3319C42.2433 94.3319 42.9 94.9822 42.9 95.7835V97.235C42.9 99.6402 40.9299 101.59 38.4995 101.59H34.1006C31.6701 101.59 29.7 99.6402 29.7 97.235V89.9779C29.7 89.1766 30.3567 88.5264 31.1669 88.5264ZM34.1006 104.492C34.1006 103.691 34.7573 103.041 35.5674 103.041H39.9663C40.7765 103.041 41.4348 103.691 41.4348 104.492V105.944C41.4333 106.136 41.3941 106.326 41.3195 106.503C41.2449 106.68 41.1362 106.841 40.9999 106.975C40.8635 107.111 40.702 107.217 40.5247 107.289C40.3473 107.361 40.1576 107.397 39.9663 107.395C39.7752 107.397 39.5857 107.361 39.4085 107.288C39.2314 107.216 39.0701 107.11 38.9339 106.975C38.7977 106.84 38.6892 106.679 38.6147 106.503C38.5402 106.326 38.501 106.136 38.4995 105.944H35.5674C35.3762 105.946 35.1864 105.91 35.0091 105.837C34.8318 105.766 34.6703 105.659 34.5339 105.524C34.3975 105.389 34.2889 105.229 34.2143 105.052C34.1396 104.875 34.1021 104.685 34.1006 104.492ZM26.7663 88.5264C27.5765 88.5264 28.2348 89.1766 28.2348 89.9779V100.116C28.2348 103.324 25.6064 105.944 22.3658 105.944C19.1268 105.944 16.5 103.323 16.5 100.116V97.235C16.5 96.4337 17.1567 95.7835 17.9669 95.7835C18.7754 95.7835 19.4337 96.4337 19.4337 97.235V100.116C19.4337 101.721 20.7455 103.041 22.3658 103.041C23.9861 103.041 25.2995 101.721 25.2995 100.116V89.9779C25.2995 89.1766 25.9545 88.5264 26.7663 88.5264ZM81.0334 92.8804C81.3229 92.881 81.6061 92.7967 81.8486 92.6368C82.029 92.5203 82.1813 92.3642 82.2935 92.1804C82.4056 91.9966 82.4752 91.7895 82.4965 91.5742C82.5178 91.3596 82.4908 91.1431 82.4169 90.9404C82.3436 90.7377 82.2252 90.5545 82.071 90.4041C81.8649 90.1995 81.603 90.0597 81.3191 90.0037C81.0347 89.9477 80.7402 89.9773 80.472 90.0887C80.2051 90.1976 79.9764 90.3833 79.8141 90.6231C79.6261 90.9013 79.5415 91.2368 79.5747 91.5717C79.6079 91.9066 79.7564 92.2188 79.9952 92.4542C80.2727 92.728 80.6443 92.881 81.0334 92.8804ZM50.2342 92.8804C50.5233 92.881 50.806 92.796 51.0477 92.6368C51.2287 92.5203 51.3811 92.3642 51.4936 92.1804C51.606 91.9966 51.6756 91.7895 51.697 91.5749C51.7184 91.3596 51.6912 91.1431 51.6173 90.9404C51.5434 90.737 51.4249 90.5539 51.2705 90.4041C51.0643 90.1995 50.8027 90.0597 50.5183 90.0037C50.2339 89.9477 49.9394 89.9773 49.6716 90.0887C49.4047 90.1976 49.1756 90.3839 49.0133 90.6231C48.8254 90.9013 48.7409 91.2375 48.7743 91.5717C48.8078 91.9066 48.9572 92.2188 49.1964 92.4542C49.4734 92.7274 49.8461 92.881 50.2342 92.8804ZM81.0334 94.3319C80.6455 94.3319 80.274 94.4842 79.997 94.7568C79.8611 94.8909 79.7533 95.0501 79.68 95.227C79.606 95.4033 79.5678 95.5921 79.5678 95.7835V101.045C79.5678 101.808 79.3504 102.316 79.1042 102.606C78.9813 102.752 78.8266 102.866 78.6524 102.942C78.4782 103.017 78.289 103.051 78.0997 103.041C77.7119 103.041 77.3397 103.193 77.0634 103.465C76.9274 103.6 76.8203 103.759 76.7463 103.936C76.673 104.112 76.6348 104.301 76.6348 104.492C76.6348 104.683 76.673 104.873 76.7463 105.049C76.8203 105.225 76.9274 105.385 77.0634 105.519C77.3397 105.792 77.7119 105.944 78.0997 105.944C78.7182 105.952 79.3303 105.826 79.893 105.57C80.4538 105.317 80.9526 104.942 81.3498 104.473C82.1305 103.554 82.5002 102.337 82.5002 101.045V95.7835C82.5002 95.5921 82.462 95.4033 82.3881 95.227C82.3148 95.0501 82.207 94.8909 82.071 94.7568C81.7941 94.4836 81.4213 94.3313 81.0334 94.3319ZM76.6329 95.7835C76.6323 95.5921 76.5947 95.4033 76.5208 95.227C76.4474 95.0501 76.3397 94.8909 76.2037 94.7568C75.9274 94.483 75.5546 94.33 75.1667 94.33C74.7789 94.33 74.406 94.483 74.1297 94.7568C73.9937 94.8909 73.886 95.0501 73.812 95.227C73.7387 95.4033 73.7005 95.5921 73.7005 95.7835V101.045C73.7005 101.808 73.4831 102.316 73.2368 102.606C73.114 102.752 72.9599 102.866 72.7857 102.942C72.6121 103.017 72.4229 103.051 72.2337 103.041C71.8458 103.04 71.473 103.192 71.1961 103.465C71.0601 103.6 70.9523 103.759 70.879 103.936C70.8057 104.112 70.7675 104.301 70.7675 104.492C70.7675 104.683 70.8057 104.873 70.879 105.049C70.9523 105.225 71.0601 105.385 71.1961 105.519C71.473 105.792 71.8458 105.945 72.2337 105.944C72.8509 105.952 73.463 105.826 74.0257 105.57C74.5865 105.317 75.0865 104.942 75.4825 104.473C76.2632 103.554 76.6329 102.337 76.6329 101.045V95.7835ZM67.8332 103.041H63.4327C63.0455 103.041 62.6733 103.193 62.3964 103.465C62.2608 103.6 62.1531 103.759 62.0796 103.936C62.0061 104.112 61.9683 104.301 61.9683 104.492C61.9683 104.683 62.0061 104.873 62.0796 105.049C62.1531 105.225 62.2608 105.385 62.3964 105.519C62.6733 105.792 63.0455 105.944 63.4327 105.944H67.8332C68.221 105.945 68.5939 105.792 68.8708 105.519C69.0068 105.385 69.1146 105.225 69.1879 105.049C69.2612 104.873 69.2994 104.683 69.2994 104.492C69.2994 104.301 69.2612 104.112 69.1879 103.936C69.1146 103.759 69.0068 103.6 68.8708 103.465C68.5939 103.192 68.221 103.04 67.8332 103.041ZM70.7669 95.7835C70.7669 95.5921 70.7286 95.4033 70.6553 95.227C70.5814 95.0501 70.4736 94.8909 70.3376 94.7568C70.0613 94.4824 69.6885 94.3288 69.3 94.3288C68.9115 94.3288 68.5387 94.4824 68.2624 94.7568C68.1264 94.8909 68.0187 95.0501 67.9447 95.227C67.8714 95.4033 67.8332 95.5921 67.8332 95.7835V97.381C67.8332 98.086 67.2774 98.6866 66.3664 98.6866H57.5685C56.6577 98.6866 56.1017 98.086 56.1017 97.381V95.7835C56.1016 95.5921 56.0636 95.4033 55.9899 95.227C55.9163 95.0501 55.8085 94.8909 55.6727 94.7568C55.3962 94.483 55.0237 94.33 54.6357 94.33C54.2476 94.33 53.8752 94.483 53.5986 94.7568C53.4629 94.8909 53.355 95.0501 53.2814 95.227C53.2077 95.4033 53.1697 95.5921 53.1696 95.7835V100.138C53.1696 100.908 52.8594 101.648 52.31 102.19C51.756 102.737 51.0105 103.042 50.2342 103.041C49.4571 103.041 48.7113 102.736 48.1602 102.19C47.889 101.922 47.6733 101.603 47.526 101.25C47.3787 100.898 47.3027 100.52 47.3022 100.138V95.7835C47.3021 95.5921 47.2641 95.4033 47.1905 95.227C47.1168 95.0501 47.009 94.8909 46.8732 94.7568C46.5966 94.4824 46.2238 94.3288 45.8354 94.3288C45.447 94.3288 45.0742 94.4824 44.7975 94.7568C44.6618 94.8909 44.5539 95.0501 44.4803 95.227C44.4066 95.4033 44.3686 95.5921 44.3685 95.7835V100.138C44.3685 101.576 44.908 102.961 45.8816 104.029C46.865 105.098 48.2031 105.769 49.6439 105.914C51.0847 106.06 52.5288 105.671 53.7042 104.821C54.8715 103.977 55.6836 102.726 55.9812 101.313C56.4894 101.495 57.0273 101.59 57.5685 101.59H66.3682C68.6979 101.59 70.7687 99.8806 70.7687 97.381L70.7669 95.7835Z" fill="#19191A"/>
</g>
<path d="M89.1 0.82959H9.9C4.88803 0.82959 0.825012 4.91433 0.825012 9.95315V131.047C0.825012 136.086 4.88803 140.171 9.9 140.171H89.1C94.112 140.171 98.1748 136.086 98.1748 131.047V9.95315C98.1748 4.91433 94.112 0.82959 89.1 0.82959Z" stroke="white" stroke-opacity="0.5"/>
<path d="M31.9827 121.343C31.9827 121.608 31.9534 121.851 31.8949 122.075C31.8365 122.298 31.7458 122.495 31.623 122.665C31.506 122.841 31.3598 123 31.1844 123.141C30.8744 123.382 30.4592 123.584 29.9387 123.749C29.4241 123.919 28.8919 124.005 28.3422 124.005C27.5644 124.005 26.9767 123.834 26.579 123.494C26.1872 123.159 25.9913 122.676 25.9913 122.048C25.9913 121.437 26.1433 120.612 26.4474 119.572L27.1404 119.775C27.0293 120.18 26.9445 120.544 26.886 120.867C26.8334 121.19 26.8071 121.455 26.8071 121.661C26.8071 122.072 26.9562 122.394 27.2545 122.63C27.5527 122.865 27.9738 122.982 28.5177 122.982C28.8685 122.982 29.2224 122.938 29.5791 122.85C29.9358 122.768 30.2516 122.659 30.5265 122.524C30.8072 122.389 31.0089 122.253 31.1318 122.119C31.1668 122.072 31.1902 122.013 31.2019 121.943C31.2195 121.866 31.2282 121.781 31.2282 121.687C31.2049 120.288 31.1844 119.252 31.1668 118.576C31.1551 117.894 31.1347 116.878 31.1054 115.527L32.009 115.457L31.9827 121.343ZM35.1756 122.313C34.7896 122.313 34.4679 122.245 34.2107 122.11C33.9533 121.975 33.7603 121.772 33.6317 121.502C33.503 121.226 33.4299 120.876 33.4124 120.453C33.3714 118.808 33.3305 117.166 33.2896 115.527L34.1931 115.457C34.1872 116.408 34.1843 117.116 34.1843 117.58C34.1843 118.044 34.1843 118.737 34.1843 119.66V119.969C34.1784 120.403 34.2662 120.732 34.4475 120.956C34.6288 121.178 34.9095 121.29 35.2896 121.29L35.1756 122.313ZM40.6304 122.313C39.8876 122.313 39.2941 122.253 38.8496 122.136C38.411 122.013 38.0455 121.781 37.7531 121.44L37.5601 121.414C37.3847 121.238 37.1829 121 36.9548 120.7C36.7268 120.394 36.5075 120.077 36.2969 119.748L37.0776 119.59C37.2823 119.865 37.487 120.118 37.6917 120.347C37.8963 120.577 38.0777 120.762 38.2356 120.903C38.5747 121.049 38.9432 121.152 39.3409 121.211C39.7444 121.264 40.2093 121.29 40.7356 121.29L40.6304 122.313ZM38.2268 118.647C38.8584 118.647 39.3467 118.711 39.6917 118.841C40.0367 118.97 40.2093 119.146 40.2093 119.369C40.2093 119.44 40.1976 119.539 40.1742 119.669C40.1508 119.792 40.1245 119.901 40.0953 119.995C39.9666 120.171 39.7122 120.427 39.3321 120.762C38.9519 121.097 38.642 121.349 38.4022 121.52L38.2356 121.449C37.7852 121.778 37.3115 122.004 36.8145 122.128C36.3232 122.251 35.7794 122.313 35.1829 122.313C35.1536 122.313 35.1302 122.277 35.1127 122.207C35.0892 122.136 35.0776 122.039 35.0776 121.916C35.0776 121.781 35.0892 121.666 35.1127 121.572C35.1361 121.478 35.1653 121.408 35.2004 121.361C35.2296 121.314 35.2589 121.29 35.2881 121.29C35.7969 121.29 36.2413 121.252 36.6215 121.176C37.0016 121.099 37.3554 120.976 37.6829 120.806L38.0338 120.876C38.2093 120.764 38.4402 120.594 38.7268 120.365C39.0133 120.136 39.2268 119.951 39.3672 119.81V119.687C39.2326 119.634 39.0484 119.595 38.8145 119.572C38.5865 119.542 38.3349 119.528 38.0601 119.528C37.7677 119.528 37.4168 119.566 37.0075 119.642C36.5981 119.713 36.2677 119.81 36.0162 119.933L35.8057 119.202C36.0571 119.043 36.4138 118.911 36.8759 118.805C37.3379 118.7 37.7882 118.647 38.2268 118.647ZM42.7189 117.369C43.0639 117.369 43.3564 117.492 43.5962 117.739C43.8359 117.986 44.0172 118.329 44.14 118.77C44.2629 119.204 44.3243 119.713 44.3243 120.295C44.3243 120.541 44.2892 120.785 44.219 121.026C44.1546 121.261 44.0523 121.469 43.912 121.652C43.7774 121.834 43.6137 121.966 43.4207 122.048C43.2043 122.142 42.909 122.209 42.5347 122.251C42.1604 122.292 41.7394 122.313 41.2715 122.313H40.6312C40.6019 122.313 40.5785 122.277 40.561 122.207C40.5376 122.136 40.5259 122.039 40.5259 121.916C40.5259 121.781 40.5376 121.666 40.561 121.572C40.5844 121.478 40.6136 121.408 40.6487 121.361C40.6779 121.314 40.7072 121.29 40.7364 121.29H41.4821C41.9323 121.29 42.3271 121.275 42.6663 121.246C43.0055 121.211 43.2657 121.155 43.447 121.079C43.5055 121.049 43.5494 121.005 43.5786 120.947C43.6078 120.882 43.6225 120.794 43.6225 120.682C43.6225 120.154 43.5786 119.707 43.4909 119.343C43.4032 118.978 43.2804 118.705 43.1225 118.523C42.9704 118.341 42.7891 118.25 42.5786 118.25C42.4558 118.25 42.3417 118.291 42.2365 118.373C42.137 118.45 42.0581 118.555 41.9996 118.691C41.9411 118.82 41.9119 118.961 41.9119 119.114C41.9119 119.26 41.9645 119.378 42.0698 119.466C42.1809 119.548 42.3359 119.59 42.5347 119.59C42.7453 119.59 42.9441 119.581 43.1312 119.563C43.3183 119.539 43.526 119.504 43.7541 119.457V120.295C43.5552 120.353 43.333 120.403 43.0874 120.444C42.8418 120.48 42.6078 120.497 42.3856 120.497C41.9996 120.497 41.7072 120.406 41.5084 120.224C41.3154 120.036 41.2189 119.783 41.2189 119.466C41.2189 119.114 41.2832 118.776 41.4119 118.453C41.5405 118.124 41.7189 117.862 41.947 117.668C42.1751 117.468 42.4324 117.369 42.7189 117.369ZM43.1839 116.452C42.9441 116.452 42.7628 116.452 42.64 116.452C42.523 116.452 42.3476 116.452 42.1137 116.452V115.457C42.3534 115.457 42.5318 115.457 42.6488 115.457C42.7716 115.457 42.9499 115.457 43.1839 115.457V116.452ZM48.2447 117.924C48.5546 118.182 48.8237 118.418 49.0518 118.629C49.2798 118.834 49.4757 119.026 49.6395 119.202C49.8325 119.407 49.9845 119.598 50.0956 119.775C50.2126 119.951 50.2945 120.118 50.3413 120.277C50.3939 120.429 50.4202 120.591 50.4202 120.762C50.4202 120.979 50.3792 121.178 50.2974 121.361C50.2155 121.543 50.1044 121.701 49.9641 121.837C49.8295 121.966 49.6687 122.075 49.4816 122.163C49.3412 122.227 49.1892 122.277 49.0254 122.313C48.8617 122.342 48.695 122.357 48.5254 122.357C48.0985 122.357 47.7798 122.253 47.5693 122.048C47.3587 121.837 47.2535 121.56 47.2535 121.22C47.2535 120.956 47.3265 120.647 47.4728 120.295C47.619 119.942 47.8558 119.542 48.1833 119.096L48.7096 119.501C48.4816 119.789 48.309 120.045 48.1921 120.268C48.0751 120.485 48.0166 120.656 48.0166 120.779C48.0166 120.926 48.0722 121.049 48.1833 121.149C48.2944 121.249 48.4611 121.299 48.6833 121.299C48.9465 121.299 49.1804 121.264 49.3851 121.193C49.5897 121.117 49.6921 121.035 49.6921 120.947C49.6921 120.847 49.6599 120.738 49.5956 120.621C49.5371 120.503 49.4231 120.353 49.2535 120.171C49.119 120.013 48.9231 119.819 48.6658 119.59C48.4143 119.354 48.1044 119.075 47.7359 118.752L48.2447 117.924ZM56.4279 122.313C56.1413 122.313 55.8957 122.277 55.691 122.207C55.4863 122.136 55.3138 122.028 55.1735 121.881C55.0331 121.734 54.9278 121.546 54.8577 121.317L54.9629 121.308C54.8109 121.525 54.6062 121.722 54.3489 121.898C54.0974 122.068 53.8196 122.204 53.5155 122.304C53.2114 122.398 52.919 122.445 52.6383 122.445C52.2991 122.445 52.0418 122.35 51.8664 122.163C51.6909 121.969 51.6032 121.684 51.6032 121.308C51.6032 121.19 51.6032 121.088 51.6032 121C51.6032 120.905 51.6061 120.785 51.612 120.638L52.2874 120.594V120.815C52.2874 121.032 52.3313 121.187 52.419 121.282C52.5067 121.375 52.6588 121.423 52.8752 121.423C53.1851 121.423 53.5009 121.343 53.8226 121.185C54.1442 121.026 54.4278 120.815 54.6735 120.55L54.6296 120.788C54.5302 120.336 54.422 119.895 54.305 119.466C54.188 119.031 54.036 118.547 53.8489 118.012L54.6296 117.633C54.7231 117.921 54.808 118.212 54.884 118.506C54.96 118.793 55.0361 119.099 55.1121 119.422C55.1589 119.61 55.2027 119.798 55.2436 119.986C55.3196 120.339 55.4133 120.609 55.5244 120.797C55.6354 120.985 55.77 121.114 55.9279 121.185C56.0858 121.255 56.2875 121.29 56.5331 121.29L56.4279 122.313ZM58.4893 118.911C58.5478 119.211 58.6034 119.546 58.656 119.916C58.7086 120.279 58.735 120.553 58.735 120.735C58.735 120.905 58.7057 121.079 58.6472 121.255C58.5888 121.431 58.5039 121.593 58.3928 121.74C58.2817 121.881 58.1472 121.989 57.9893 122.066C57.8022 122.16 57.5712 122.225 57.2963 122.26C57.0273 122.295 56.7379 122.313 56.4279 122.313C56.3986 122.313 56.3753 122.277 56.3577 122.207C56.3343 122.136 56.3226 122.039 56.3226 121.916C56.3226 121.781 56.3343 121.666 56.3577 121.572C56.3811 121.478 56.4103 121.408 56.4454 121.361C56.4747 121.314 56.5039 121.29 56.5331 121.29C57.0361 121.29 57.3958 121.264 57.6121 121.211C57.8344 121.152 57.9455 121.076 57.9455 120.982C57.9455 120.823 57.9162 120.565 57.8577 120.206C57.8051 119.848 57.7291 119.498 57.6297 119.158L58.4893 118.911ZM58.4104 118.1C58.1706 118.1 57.9893 118.1 57.8665 118.1C57.7495 118.1 57.5741 118.1 57.3402 118.1V117.104C57.58 117.104 57.7583 117.104 57.8753 117.104C57.9981 117.104 58.1765 117.104 58.4104 117.104V118.1ZM62.3733 122.313C62.0926 122.313 61.8645 122.28 61.689 122.216C61.5195 122.151 61.4025 122.051 61.3382 121.916L61.4961 121.599C61.4961 121.922 61.4434 122.227 61.3382 122.515C61.2329 122.803 61.0721 123.067 60.8557 123.308C60.6452 123.555 60.3732 123.767 60.0399 123.943C59.7358 124.102 59.3761 124.245 58.9609 124.375C58.5457 124.504 58.0808 124.615 57.5661 124.71C57.5018 124.509 57.455 124.357 57.4258 124.251C57.3907 124.151 57.3439 124.005 57.2854 123.811C58.2094 123.646 58.9229 123.458 59.4258 123.247C59.9346 123.035 60.2767 122.817 60.4522 122.595C60.6335 122.377 60.7241 122.151 60.7241 121.916C60.7241 121.722 60.689 121.416 60.6188 121C60.5487 120.577 60.4609 120.159 60.3557 119.748L61.2066 119.466C61.2943 120.013 61.3791 120.409 61.461 120.656C61.5487 120.896 61.6657 121.064 61.8119 121.158C61.9639 121.246 62.1862 121.29 62.4785 121.29L62.3733 122.313ZM64.4346 118.911C64.4929 119.211 64.5486 119.546 64.6013 119.916C64.6539 120.279 64.6802 120.553 64.6802 120.735C64.6802 120.905 64.6508 121.079 64.5925 121.255C64.5342 121.431 64.449 121.593 64.3381 121.74C64.2272 121.881 64.0925 121.989 63.9346 122.066C63.7472 122.16 63.5167 122.225 63.2416 122.26C62.9728 122.295 62.6835 122.313 62.3733 122.313C62.344 122.313 62.3204 122.277 62.3029 122.207C62.2795 122.136 62.2678 122.039 62.2678 121.916C62.2678 121.781 62.2795 121.666 62.3029 121.572C62.3263 121.478 62.3555 121.408 62.3906 121.361C62.4199 121.314 62.4493 121.29 62.4785 121.29C62.9817 121.29 63.3412 121.264 63.5574 121.211C63.7798 121.152 63.8907 121.076 63.8907 120.982C63.8907 120.823 63.8613 120.565 63.803 120.206C63.7504 119.848 63.6746 119.498 63.5749 119.158L64.4346 118.911ZM61.8204 123.291C62.1011 123.291 62.3087 123.291 62.4433 123.291C62.5778 123.291 62.7823 123.291 63.0574 123.291V124.119C62.7767 124.119 62.569 124.119 62.4345 124.119C62.2941 124.119 62.0894 124.119 61.8204 124.119V123.291ZM64.2065 124.119C63.9258 124.119 63.7184 124.119 63.5837 124.119C63.449 124.119 63.2447 124.119 62.9697 124.119V123.291C63.2504 123.291 63.4578 123.291 63.5925 123.291C63.7328 123.291 63.9377 123.291 64.2065 123.291V124.119ZM70.6998 122.313C70.4134 122.313 70.1678 122.277 69.9629 122.207C69.758 122.136 69.5857 122.028 69.4454 121.881C69.305 121.734 69.1998 121.546 69.1296 121.317L69.2348 121.308C69.0826 121.525 68.8783 121.722 68.6208 121.898C68.3695 122.068 68.0913 122.204 67.7874 122.304C67.4836 122.398 67.1909 122.445 66.9102 122.445C66.5713 122.445 66.3137 122.35 66.1383 122.163C65.9628 121.969 65.8751 121.684 65.8751 121.308C65.8751 121.19 65.8751 121.088 65.8751 121C65.8751 120.905 65.8782 120.785 65.8839 120.638L66.5593 120.594V120.815C66.5593 121.032 66.6032 121.187 66.6909 121.282C66.7786 121.375 66.9309 121.423 67.1471 121.423C67.4572 121.423 67.773 121.343 68.0945 121.185C68.4159 121.026 68.6997 120.815 68.9454 120.55L68.9015 120.788C68.8019 120.336 68.6941 119.895 68.5769 119.466C68.4598 119.031 68.3081 118.547 68.1208 118.012L68.9015 117.633C68.9949 117.921 69.0801 118.212 69.1559 118.506C69.2317 118.793 69.3082 119.099 69.384 119.422C69.431 119.61 69.4748 119.798 69.5156 119.986C69.5914 120.339 69.6854 120.609 69.7963 120.797C69.9072 120.985 70.0419 121.114 70.1998 121.185C70.3577 121.255 70.5594 121.29 70.8051 121.29L70.6998 122.313ZM68.9366 116.849C68.6966 116.849 68.5155 116.849 68.3927 116.849C68.2756 116.849 68.1001 116.849 67.8664 116.849V115.853C68.1064 115.853 68.2843 115.853 68.4015 115.853C68.5243 115.853 68.7029 115.853 68.9366 115.853V116.849ZM72.7613 118.911C72.8195 119.211 72.8753 119.546 72.9279 119.916C72.9806 120.279 73.0069 120.553 73.0069 120.735C73.0069 120.905 72.9774 121.079 72.9192 121.255C72.8609 121.431 72.7757 121.593 72.6648 121.74C72.5539 121.881 72.4191 121.989 72.2612 122.066C72.0739 122.16 71.8433 122.225 71.5682 122.26C71.2994 122.295 71.01 122.313 70.6998 122.313C70.6703 122.313 70.6472 122.277 70.6296 122.207C70.6064 122.136 70.5945 122.039 70.5945 121.916C70.5945 121.781 70.6064 121.666 70.6296 121.572C70.6528 121.478 70.6823 121.408 70.7173 121.361C70.7468 121.314 70.7756 121.29 70.8051 121.29C71.3082 121.29 71.6679 121.264 71.884 121.211C72.1065 121.152 72.2174 121.076 72.2174 120.982C72.2174 120.823 72.1879 120.565 72.1297 120.206C72.077 119.848 72.0012 119.498 71.9016 119.158L72.7613 118.911ZM70.1472 123.291C70.4279 123.291 70.6353 123.291 70.77 123.291C70.9047 123.291 71.109 123.291 71.384 123.291V124.119C71.1033 124.119 70.8959 124.119 70.7612 124.119C70.6208 124.119 70.416 124.119 70.1472 124.119V123.291ZM72.5332 124.119C72.2525 124.119 72.0451 124.119 71.9104 124.119C71.7756 124.119 71.5714 124.119 71.2963 124.119V123.291C71.577 123.291 71.7844 123.291 71.9191 123.291C72.0595 123.291 72.2644 123.291 72.5332 123.291V124.119ZM71.8314 125.379C71.609 125.379 71.4423 125.379 71.3314 125.379C71.2261 125.379 71.0651 125.379 70.8489 125.379V124.525C71.0714 124.525 71.2349 124.525 71.3402 124.525C71.4511 124.525 71.6152 124.525 71.8314 124.525V125.379Z" fill="#997B00"/>
</g>
</g>
<defs>
<linearGradient id="paint0_linear_3_1049" x1="74.25" y1="36.718" x2="-5.65857" y2="171.629" gradientUnits="userSpaceOnUse">
<stop offset="0.377" stop-color="#FFD60A"/>
<stop offset="1" stop-color="#F5BE09"/>
</linearGradient>
<linearGradient id="paint1_linear_3_1049" x1="64.2592" y1="19.1494" x2="42.2854" y2="77.0601" gradientUnits="userSpaceOnUse">
<stop stop-color="white"/>
<stop offset="1" stop-color="white" stop-opacity="0.56"/>
</linearGradient>
<linearGradient id="paint2_linear_3_1049" x1="46.4789" y1="25.3417" x2="35.2652" y2="53.142" gradientUnits="userSpaceOnUse">
<stop stop-color="#051A80"/>
<stop offset="1" stop-color="#0A33FF"/>
</linearGradient>
<clipPath id="clip0_3_1049">
<rect width="99" height="141" fill="white"/>
</clipPath>
</defs>
</svg>
