<svg width="24" height="26" viewBox="0 0 24 26" fill="none" xmlns="http://www.w3.org/2000/svg">
<path fill-rule="evenodd" clip-rule="evenodd" d="M1.59096 4.08016C0.75 5.62026 0.75 7.66351 0.75 11.75V14.25C0.75 18.3365 0.75 20.3797 1.59096 21.9198C2.22259 23.0766 3.17341 24.0274 4.33016 24.659C5.87026 25.5 7.91351 25.5 12 25.5C16.0865 25.5 18.1297 25.5 19.6698 24.659C20.8266 24.0274 21.7774 23.0766 22.409 21.9198C23.25 20.3797 23.25 18.3365 23.25 14.25V11.75C23.25 7.66351 23.25 5.62026 22.409 4.08016C21.7774 2.92341 20.8266 1.97259 19.6698 1.34096C18.1297 0.5 16.0865 0.5 12 0.5C7.91351 0.5 5.87026 0.5 4.33016 1.34096C3.17341 1.97259 2.22259 2.92341 1.59096 4.08016ZM16.125 19.75C16.6082 19.75 17 19.3583 17 18.875C17 18.3918 16.6082 18 16.125 18L6.625 18C6.14175 18 5.75 18.3918 5.75 18.875C5.75 19.3583 6.14175 19.75 6.625 19.75L16.125 19.75ZM17 13.875C17 14.3583 16.6082 14.75 16.125 14.75L6.625 14.75C6.14175 14.75 5.75 14.3583 5.75 13.875C5.75 13.3918 6.14175 13 6.625 13L16.125 13C16.6082 13 17 13.3918 17 13.875ZM11.125 9.75003C11.6082 9.75003 12 9.35828 12 8.87503C12 8.39178 11.6082 8.00003 11.125 8.00003L6.625 8.00003C6.14175 8.00003 5.75 8.39178 5.75 8.87503C5.75 9.35828 6.14175 9.75003 6.625 9.75003L11.125 9.75003Z" fill="#F0F4F8"/>
</svg>
