<svg width="26" height="25" viewBox="0 0 26 25" fill="none" xmlns="http://www.w3.org/2000/svg">
<path fill-rule="evenodd" clip-rule="evenodd" d="M0.5 14.4999C0.5 13.2676 0.5 12.3619 0.538051 11.6408C0.58987 11.6486 0.652861 11.6581 0.726291 11.669C0.957348 11.7035 1.29184 11.7526 1.70687 11.8115C2.53671 11.9293 3.68966 12.0864 4.98232 12.2435C5.27295 12.2788 5.57123 12.3142 5.875 12.3492V13.2499C5.875 13.7331 6.26675 14.1249 6.75 14.1249C7.23325 14.1249 7.625 13.7331 7.625 13.2499V12.5387C9.5186 12.7295 11.464 12.8749 13 12.8749C14.536 12.8749 16.4814 12.7295 18.375 12.5387V13.2499C18.375 13.7331 18.7668 14.1249 19.25 14.1249C19.7332 14.1249 20.125 13.7331 20.125 13.2499V12.3492C20.4288 12.3142 20.7271 12.2788 21.0177 12.2435C22.3103 12.0864 23.4633 11.9293 24.2931 11.8115C24.7082 11.7526 25.0427 11.7035 25.2737 11.669C25.3471 11.6581 25.4101 11.6486 25.4619 11.6408C25.5 12.3619 25.5 13.2676 25.5 14.4999C25.5 16.8248 25.5 17.9873 25.2444 18.941C24.5509 21.5292 22.5293 23.5508 19.9411 24.2443C18.9874 24.4999 17.8249 24.4999 15.5 24.4999H10.5C8.17507 24.4999 7.01261 24.4999 6.05886 24.2443C3.47067 23.5508 1.44906 21.5292 0.755556 18.941C0.5 17.9873 0.5 16.8248 0.5 14.4999ZM25.203 9.91005C25.1518 9.91778 25.0891 9.92721 25.0157 9.93815C24.7882 9.97207 24.4578 10.0206 24.0472 10.0789C23.2258 10.1955 22.0848 10.3509 20.8065 10.5063C20.5829 10.5335 20.3554 10.5606 20.125 10.5875V9.49988C20.125 9.01663 19.7332 8.62488 19.25 8.62488C18.7668 8.62488 18.375 9.01663 18.375 9.49988V10.7797C16.4589 10.9758 14.5055 11.1249 13 11.1249C11.4945 11.1249 9.5411 10.9758 7.625 10.7797V9.49988C7.625 9.01663 7.23325 8.62488 6.75 8.62488C6.26675 8.62488 5.875 9.01663 5.875 9.49988V10.5875C5.6446 10.5606 5.41711 10.5335 5.19347 10.5063C3.91516 10.3509 2.77417 10.1955 1.9528 10.0789C1.54223 10.0206 1.2118 9.97207 0.984343 9.93815C0.910911 9.92721 0.848218 9.91778 0.797035 9.91005C1.52702 7.39328 3.52044 5.4356 6.05886 4.75543C7.01261 4.49988 8.17507 4.49988 10.5 4.49988H15.5C17.8249 4.49988 18.9874 4.49988 19.9411 4.75543C22.4796 5.4356 24.473 7.39328 25.203 9.91005ZM15.125 17.6249C15.125 18.1081 14.7332 18.4999 14.25 18.4999H13H11.75C11.2668 18.4999 10.875 18.1081 10.875 17.6249C10.875 17.1416 11.2668 16.7499 11.75 16.7499H13H14.25C14.7332 16.7499 15.125 17.1416 15.125 17.6249Z" fill="#F0F4F8"/>
<path fill-rule="evenodd" clip-rule="evenodd" d="M9.5 5.12589C9.5 5.12708 9.49999 5.12827 9.49999 5.12946C9.49998 5.12985 9.49998 5.13004 9.49998 5.13004L9.49998 5.12969L9.5 5.12896C9.49999 5.12915 9.49999 5.12932 9.49999 5.12946C9.49758 5.61066 9.10676 6 8.625 6C8.14175 5.99999 7.75 5.60824 7.75 5.12499L8.625 5.125C7.75 5.12499 7.75 5.12451 7.75 5.12401L7.75 5.12293L7.75001 5.1205L7.75005 5.1145L7.75027 5.09808C7.7505 5.08521 7.75091 5.06849 7.75165 5.04819C7.75313 5.00761 7.75593 4.95252 7.7612 4.88497C7.77174 4.75017 7.79228 4.56394 7.83255 4.34307C7.91239 3.90509 8.07358 3.30969 8.40418 2.70516C8.73744 2.09577 9.24656 1.47142 10.0153 1.00285C10.7859 0.533138 11.7683 0.25 13 0.25C14.2317 0.25 15.2141 0.533138 15.9847 1.00285C16.7534 1.47142 17.2626 2.09577 17.5958 2.70516C17.9264 3.30969 18.0876 3.90509 18.1675 4.34307C18.2077 4.56394 18.2283 4.75017 18.2388 4.88497C18.2441 4.95252 18.2469 5.00761 18.2484 5.04819C18.2491 5.06849 18.2495 5.08521 18.2497 5.09808L18.25 5.1145L18.25 5.1205L18.25 5.12293L18.25 5.12401C18.25 5.12451 18.25 5.12499 17.375 5.125L18.25 5.12499C18.25 5.60824 17.8583 5.99999 17.375 6C16.8933 6 16.5024 5.61068 16.5 5.1295C16.5 5.12845 16.5 5.1274 16.5 5.12636C16.5 5.1262 16.5 5.12604 16.5 5.12588C16.5 5.12588 16.5 5.12589 16.5 5.12589L16.5 5.12636L16.5 5.12669L16.5 5.12804L16.5 5.1297C16.5 5.13022 16.5 5.13015 16.5 5.1295C16.5 5.12935 16.5 5.12917 16.5 5.12896L16.4995 5.11196C16.4989 5.09395 16.4974 5.0631 16.4941 5.02128C16.4876 4.93733 16.4739 4.81105 16.4458 4.65692C16.3889 4.34491 16.2767 3.94031 16.0604 3.54484C15.8468 3.15423 15.5356 2.77858 15.0739 2.49715C14.614 2.21686 13.9558 2 13 2C12.0442 2 11.386 2.21686 10.9261 2.49715C10.4644 2.77858 10.1532 3.15423 9.93958 3.54483C9.7233 3.94031 9.61105 4.3449 9.55418 4.65692C9.52608 4.81105 9.51245 4.93733 9.50589 5.02128C9.50262 5.0631 9.50114 5.09394 9.50049 5.11196L9.5 5.12896L9.49999 5.12804L9.5 5.12669L9.5 5.12589Z" fill="#F0F4F8"/>
</svg>
