<svg width="28" height="28" viewBox="0 0 28 28" fill="none" xmlns="http://www.w3.org/2000/svg">
<path d="M9.03213 10.1727C8.4211 11.0967 6.99996 12.4236 6.99996 13.5C6.99996 14.7465 8.32827 17.2567 10.0533 18.9605C11.7784 20.6643 13.2379 21.625 14.5 21.625C15.3592 21.625 15.791 19.5526 18.0861 19.5526C19.8074 19.5526 22 21.4276 22.625 23.5C22.9833 24.6883 21.5799 25.761 20.0061 26.5078C18.7721 27.0933 17.3887 27.3039 16.0292 27.1732C13.5461 26.9343 10.0058 25.9529 5.74997 21.9211C0.873074 16.625 0.626851 13.1555 0.749967 9.76731C0.873083 6.37915 3.87497 4.75 4.88945 4.75C5.83061 4.75 8.78051 7.29805 9.202 9.30865C9.26478 9.60811 9.20089 9.91746 9.03213 10.1727Z" fill="#F0F4F8"/>
<path fill-rule="evenodd" clip-rule="evenodd" d="M14.6183 9.37315C14.6255 9.37239 14.6392 9.3712 14.661 9.36965C14.7046 9.36653 14.7759 9.36299 14.8701 9.36351C15.0591 9.36455 15.3365 9.3819 15.6667 9.44967C16.323 9.58441 17.1861 9.91723 17.9955 10.7266C18.8049 11.536 19.1377 12.3991 19.2724 13.0554C19.3402 13.3856 19.3575 13.663 19.3586 13.852C19.3591 13.9462 19.3556 14.0175 19.3524 14.0611C19.3509 14.0829 19.3494 14.0977 19.3487 14.1049C19.3487 14.1045 19.349 14.103 20.2159 14.2221L19.349 14.103C19.3488 14.105 19.3485 14.1071 19.3482 14.1091C19.3482 14.1091 19.3482 14.1091 19.3482 14.1091C19.2861 14.5855 19.62 15.0234 20.0967 15.089C20.5755 15.1548 21.0169 14.82 21.0827 14.3413L20.2461 14.2263C21.0827 14.3412 21.0827 14.3417 21.0827 14.3413L21.0832 14.3376L21.0838 14.3331L21.0853 14.3215L21.089 14.2888C21.0917 14.2627 21.095 14.2282 21.098 14.1858C21.104 14.1012 21.1093 13.985 21.1085 13.8424C21.107 13.5577 21.0811 13.1638 20.9867 12.7035C20.7969 11.779 20.3289 10.5851 19.2329 9.48916C18.137 8.39322 16.943 7.9252 16.0186 7.73542C15.5583 7.64094 15.1644 7.61511 14.8797 7.61354C14.7371 7.61275 14.6209 7.61805 14.5363 7.6241C14.4939 7.62712 14.4594 7.63034 14.4333 7.6331L14.4005 7.63681L14.389 7.63825L14.3845 7.63885L14.3826 7.63911C14.3821 7.63917 14.3808 7.63935 14.5 8.5062L14.3808 7.63935C13.9021 7.70515 13.5673 8.1466 13.6331 8.62535C13.6987 9.10204 14.1366 9.43597 14.613 9.37387" fill="#F0F4F8"/>
<path fill-rule="evenodd" clip-rule="evenodd" d="M14.5478 4.3799C14.0672 4.40628 13.6551 4.03917 13.6265 3.55812C13.5978 3.07572 13.9656 2.66142 14.448 2.63275L14.5 3.50621C14.448 2.63275 14.4476 2.63277 14.448 2.63275L14.4499 2.63264L14.4521 2.63252L14.4574 2.63223L14.4721 2.63153C14.4836 2.63103 14.4985 2.63048 14.5167 2.62998C14.5532 2.62898 14.6029 2.62823 14.6651 2.62868C14.7893 2.62957 14.9631 2.63524 15.1792 2.65337C15.6109 2.68961 16.2131 2.7758 16.9241 2.97423C18.3498 3.37209 20.2075 4.22009 21.9937 6.00622C23.7799 7.79239 24.6266 9.64894 25.0232 11.0737C25.2209 11.7842 25.3064 12.3859 25.3421 12.8173C25.36 13.0331 25.3654 13.2068 25.3661 13.3309C25.3665 13.393 25.3656 13.4427 25.3646 13.4792C25.3641 13.4974 25.3635 13.5123 25.363 13.5238L25.3622 13.5385L25.362 13.5438L25.3618 13.546C25.3618 13.5465 25.3617 13.5479 24.4883 13.4946L25.3617 13.5479C25.3323 14.0303 24.9174 14.3974 24.435 14.368C23.954 14.3386 23.5876 13.926 23.6147 13.4454L23.6153 13.4288C23.6158 13.4118 23.6164 13.3822 23.6161 13.341C23.6157 13.2585 23.612 13.1297 23.5981 12.9616C23.5702 12.6251 23.5016 12.1336 23.3372 11.5429C23.0095 10.3652 22.2995 8.78695 20.7562 7.24366C19.2129 5.70033 17.6331 4.98896 16.4537 4.65982C15.8622 4.49475 15.3699 4.42553 15.0328 4.39724C14.8644 4.3831 14.7352 4.37922 14.6525 4.37863C14.6112 4.37834 14.5815 4.37886 14.5644 4.37933L14.5478 4.3799ZM14.5478 4.3799C14.5478 4.3799 14.5478 4.3799 14.5478 4.3799V4.3799Z" fill="#F0F4F8"/>
</svg>
