<svg width="24" height="24" viewBox="0 0 24 24" fill="none" xmlns="http://www.w3.org/2000/svg">
<path fill-rule="evenodd" clip-rule="evenodd" d="M0.633392 9.05958C0.125 10.2418 0.125 11.5794 0.125 14.2546V15.9999C0.125 19.5355 0.125 21.3032 1.22335 22.4016C2.2955 23.4737 4.00551 23.4993 7.375 23.4999C7.45734 23.4999 7.54067 23.4999 7.625 23.4999H16.375C16.4593 23.4999 16.5427 23.4999 16.625 23.4999C19.9945 23.4993 21.7045 23.4737 22.7767 22.4016C23.875 21.3032 23.875 19.5355 23.875 15.9999V14.2546C23.875 11.5794 23.875 10.2418 23.3666 9.05958C23.2923 8.88683 23.2103 8.71751 23.1207 8.55215C22.5078 7.42058 21.458 6.59174 19.3583 4.93408C16.0204 2.29888 14.3514 0.981283 12.4174 0.851842C12.1394 0.83324 11.8606 0.83324 11.5826 0.851842C9.6486 0.981283 7.97964 2.29888 4.64172 4.93408C2.54202 6.59174 1.49217 7.42058 0.879294 8.55215C0.789735 8.71751 0.707684 8.88683 0.633392 9.05958ZM16.625 23.4999C16.625 22.8925 16.5054 22.2911 16.2729 21.73C16.0405 21.1689 15.6998 20.659 15.2704 20.2295C14.8409 19.8001 14.331 19.4594 13.7699 19.227C13.2088 18.9945 12.6074 18.8749 12 18.8749C11.3926 18.8749 10.7912 18.9945 10.2301 19.227C9.66896 19.4594 9.1591 19.8001 8.72963 20.2295C8.30016 20.659 7.95949 21.1689 7.72706 21.73C7.49463 22.2911 7.375 22.8925 7.375 23.4999H9.125C9.125 23.1224 9.19936 22.7485 9.34385 22.3997C9.48833 22.0509 9.7001 21.7339 9.96707 21.467C10.234 21.2 10.551 20.9882 10.8998 20.8437C11.2486 20.6993 11.6224 20.6249 12 20.6249C12.3776 20.6249 12.7514 20.6993 13.1002 20.8437C13.449 20.9882 13.766 21.2 14.0329 21.467C14.2999 21.7339 14.5117 22.0509 14.6562 22.3997C14.8006 22.7485 14.875 23.1224 14.875 23.4999H16.625Z" fill="#F0F4F8"/>
</svg>
