<svg width="23" height="24" viewBox="0 0 23 24" fill="none" xmlns="http://www.w3.org/2000/svg">
<path fill-rule="evenodd" clip-rule="evenodd" d="M14.7548 2.25262C14.7189 1.77071 15.0804 1.3509 15.5623 1.31496L15.6274 2.18754C15.5623 1.31496 15.5628 1.31492 15.5633 1.31489L15.5644 1.31481L15.5667 1.31464L15.5721 1.31428L15.586 1.31343C15.5966 1.31284 15.6098 1.3122 15.6255 1.31162C15.6569 1.31047 15.6985 1.30958 15.7488 1.30989C15.8492 1.31052 15.9862 1.31596 16.1492 1.33414C16.472 1.37017 16.9149 1.45828 17.3801 1.6721C18.3621 2.12342 19.3257 3.08625 19.5519 4.91695C19.7786 6.75116 19.0709 7.89987 18.2027 8.54744C17.7951 8.85149 17.3798 9.02574 17.0721 9.12453C16.9165 9.17447 16.7834 9.20674 16.6853 9.22707C16.636 9.23726 16.5952 9.24454 16.5641 9.24958C16.5486 9.2521 16.5355 9.25407 16.525 9.25557L16.5112 9.25747L16.5058 9.25817L16.5035 9.25847L16.5024 9.2586C16.5019 9.25866 16.5014 9.25872 16.3941 8.39033L16.5014 9.25872C16.0218 9.318 15.585 8.97726 15.5257 8.49766C15.4667 8.02054 15.8036 7.58573 16.2793 7.52289C16.2812 7.52264 16.283 7.5224 16.2849 7.52217L16.2833 7.52237L16.2808 7.5227L16.2784 7.52302C16.2782 7.52305 16.2785 7.52301 16.2793 7.52289C16.2802 7.52276 16.2817 7.52253 16.2837 7.5222C16.2915 7.52093 16.3075 7.51817 16.3304 7.51343C16.3765 7.50388 16.4487 7.48669 16.5371 7.45831C16.7173 7.40044 16.9447 7.30256 17.1564 7.14469C17.5268 6.8684 17.9638 6.33408 17.8151 5.1316C17.6661 3.92562 17.1016 3.47008 16.6493 3.2622C16.3974 3.14642 16.1466 3.09472 15.9551 3.07335C15.8609 3.06283 15.7855 3.06016 15.7378 3.05986C15.7141 3.05971 15.6977 3.06015 15.6896 3.06045C15.6875 3.06052 15.686 3.06059 15.6851 3.06063C15.6875 3.06047 15.69 3.0603 15.6925 3.06011M14.7548 2.25262C14.7906 2.73206 15.2063 3.09235 15.6851 3.06063L14.7548 2.25262ZM16.285 7.52215L16.2858 7.52206C16.2858 7.52206 16.2858 7.52206 16.2858 7.52205C16.2855 7.52209 16.2853 7.52212 16.285 7.52215Z" fill="#F0F4F8"/>
<path d="M0.0617704 18.8852C0.0911671 18.4737 0.105865 18.2679 0.123578 18.1416C0.397714 16.1865 1.87756 14.9047 3.85172 14.9123C3.97928 14.9128 4.2346 14.9312 4.74524 14.968C5.68894 15.0359 6.68912 15.0834 7.64029 15.0834C8.72173 15.0834 9.91598 15.022 11.0359 14.939C11.5276 14.9025 11.7734 14.8843 11.9136 14.8844C13.8475 14.8859 15.3394 16.1753 15.6208 18.0886C15.6412 18.2274 15.6561 18.4353 15.6858 18.8512C15.7109 19.203 15.7235 19.3789 15.7225 19.5252C15.7094 21.4733 14.207 23.0869 12.2648 23.2387C12.1189 23.2501 11.9426 23.2501 11.5899 23.2501H7.64029H4.12599C3.80473 23.2501 3.6441 23.2501 3.51114 23.2406C1.54801 23.1009 0.0269278 21.4673 0.0274049 19.4992C0.0274372 19.3659 0.0388816 19.2057 0.0617704 18.8852Z" fill="#F0F4F8"/>
<path fill-rule="evenodd" clip-rule="evenodd" d="M18.4013 16.4211C17.943 16.5735 17.4479 16.3257 17.2951 15.8675C17.1423 15.409 17.3901 14.9135 17.8485 14.7607L18.1252 15.5908C17.8485 14.7607 17.8489 14.7606 17.8493 14.7604L17.8501 14.7602L17.852 14.7595L17.8568 14.7579L17.8707 14.7535C17.8817 14.75 17.8963 14.7454 17.9143 14.74C17.9503 14.7291 17.9999 14.7147 18.0612 14.6984C18.1834 14.6659 18.3544 14.625 18.5587 14.5888C18.9589 14.518 19.5261 14.4582 20.118 14.5386C20.7124 14.6193 21.3966 14.8517 21.9297 15.4243C22.4613 15.9954 22.7406 16.7946 22.75 17.8064C22.91 19.2034 22.7507 20.3058 22.343 21.1622C21.9248 22.0409 21.2803 22.5864 20.6196 22.9101C19.9732 23.2268 19.3212 23.328 18.8496 23.3552C18.6102 23.3691 18.4075 23.3644 18.2613 23.3559C18.1879 23.3517 18.1281 23.3464 18.0841 23.3419C18.0621 23.3396 18.0441 23.3375 18.0302 23.3358L18.0126 23.3335L18.0062 23.3326L18.0036 23.3323L18.0025 23.3321C18.002 23.332 18.0015 23.332 18.1252 22.4658L18.0015 23.332C17.5231 23.2636 17.1907 22.8204 17.259 22.342C17.3272 21.8651 17.7678 21.5333 18.2445 21.5989C18.2439 21.5988 18.2438 21.5988 18.2442 21.5989M18.2445 21.5989C18.2447 21.599 18.245 21.599 18.2453 21.599L18.2643 21.6012C18.2841 21.6032 18.3177 21.6063 18.3627 21.6089C18.4533 21.6141 18.5875 21.6175 18.7486 21.6081C19.0777 21.5891 19.4804 21.5195 19.8496 21.3386C20.2046 21.1647 20.5366 20.8856 20.7629 20.4101C20.9949 19.9228 21.1491 19.158 21.0064 17.9633C21.0023 17.9289 21.0002 17.8942 21.0002 17.8595C21.0002 17.1371 20.8111 16.7911 20.6489 16.6168C20.4788 16.4341 20.2256 16.3193 19.8825 16.2727C19.5369 16.2257 19.1666 16.2585 18.8636 16.3121C18.7164 16.3381 18.5944 16.3674 18.5115 16.3895C18.4703 16.4004 18.4393 16.4095 18.4204 16.4152L18.4013 16.4211C18.4011 16.4212 18.4009 16.4212 18.4007 16.4213L18.4007 16.4213L18.4013 16.4211M18.4007 16.4213L18.3999 16.4216L18.3991 16.4218C18.399 16.4218 18.3993 16.4218 18.3998 16.4216C18.4001 16.4215 18.4004 16.4214 18.4007 16.4213Z" fill="#F0F4F8"/>
<path d="M3.5 6.375C3.5 3.95875 5.45875 2 7.875 2C10.2912 2 12.25 3.95875 12.25 6.375V7C12.25 9.07107 10.5711 10.75 8.5 10.75H7.25C5.17893 10.75 3.5 9.07107 3.5 7V6.375Z" fill="#F0F4F8"/>
</svg>
