<svg width="25" height="23" viewBox="0 0 25 23" fill="none" xmlns="http://www.w3.org/2000/svg">
<path fill-rule="evenodd" clip-rule="evenodd" d="M10.9238 0.75H15.9758C20.5455 0.75 24.25 4.45448 24.25 9.02419L24.25 13.8125C24.25 18.4034 20.5284 22.125 15.9375 22.125H11.7812L7.67163 22.0551C5.98462 22.0264 4.30185 22.2331 2.67191 22.6691L2.08986 22.8247C1.40817 23.0071 0.797282 22.3581 1.02043 21.6887C1.5032 20.2404 1.7328 18.7197 1.69918 17.1935L1.54355 10.1302C1.54355 4.94968 5.74323 0.75 10.9238 0.75ZM8 13.25C8.69036 13.25 9.25 12.6904 9.25 12C9.25 11.3096 8.69036 10.75 8 10.75C7.30964 10.75 6.75 11.3096 6.75 12C6.75 12.6904 7.30964 13.25 8 13.25ZM14.25 12C14.25 12.6904 13.6904 13.25 13 13.25C12.3096 13.25 11.75 12.6904 11.75 12C11.75 11.3096 12.3096 10.75 13 10.75C13.6904 10.75 14.25 11.3096 14.25 12ZM18 13.25C18.6904 13.25 19.25 12.6904 19.25 12C19.25 11.3096 18.6904 10.75 18 10.75C17.3096 10.75 16.75 11.3096 16.75 12C16.75 12.6904 17.3096 13.25 18 13.25Z" fill="#F0F4F8"/>
</svg>
