<svg width="20" height="24" viewBox="0 0 20 24" fill="none" xmlns="http://www.w3.org/2000/svg">
<path fill-rule="evenodd" clip-rule="evenodd" d="M0.187531 12.1877C0.18753 11.7045 0.579281 11.3127 1.06253 11.3127H11.0625V13.0627H1.06253C0.579281 13.0627 0.187531 12.671 0.187531 12.1877Z" fill="#F0F4F8"/>
<path fill-rule="evenodd" clip-rule="evenodd" d="M11.6876 0.937744H15.6591C17.5551 0.937744 19.1503 2.35136 19.3323 4.23856C19.5595 6.59511 19.8125 9.76374 19.8125 12.1877C19.8125 14.6117 19.5595 17.7804 19.3323 20.1369C19.1503 22.0241 17.5551 23.4377 15.6591 23.4377H11.6876C10.9973 23.4377 10.4375 22.8781 10.4375 22.1877V16.8477C10.6914 16.9209 10.9763 16.8574 11.1763 16.6574L15.1156 12.7181C15.4085 12.4252 15.4085 11.9503 15.1156 11.6574L11.1763 7.71807C10.9763 7.51805 10.6914 7.45463 10.4375 7.52781V2.18774C10.4375 1.49739 10.9973 0.937744 11.6876 0.937744ZM12.6496 13.0627H10.4375V15.2749L12.6496 13.0627ZM10.4375 9.10063L12.6496 11.3127H10.4375V9.10063Z" fill="#F0F4F8"/>
</svg>
